<?xml version="1.0" encoding="utf-8"?>
<!-- Generator: Adobe Illustrator 26.1.0, SVG Export Plug-In . SVG Version: 6.00 Build 0)  -->
<svg version="1.1" id="Layer_1" xmlns="http://www.w3.org/2000/svg" xmlns:xlink="http://www.w3.org/1999/xlink" x="0px" y="0px"
	 viewBox="0 0 320.96 320.43" style="enable-background:new 0 0 320.96 320.43;" xml:space="preserve">
<style type="text/css">
	.st0{fill:none;stroke:#B1B1B7;stroke-width:1.0489;}
	.st1{fill:#FFFFFF;}
	.st2{fill:none;stroke:#90A19D;stroke-width:1.0484;}
	.st3{clip-path:url(#SVGID_00000012457468399781924350000003614601217372088219_);fill:#222222;}
	.st4{fill:#222222;}
	.st5{clip-path:url(#SVGID_00000153688262948646115850000009674945598241500071_);fill:#FFFFFF;}
	.st6{clip-path:url(#SVGID_00000153688262948646115850000009674945598241500071_);fill:none;stroke:#767676;stroke-width:1.0484;}
	.st7{clip-path:url(#SVGID_00000153688262948646115850000009674945598241500071_);fill:none;stroke:#000000;stroke-width:2.0967;}
	.st8{clip-path:url(#SVGID_00000157298035875211358710000003960588572084509366_);}
	.st9{clip-path:url(#SVGID_00000129174038678264954460000011223418122748942768_);fill:#FFFFFF;}
	.st10{clip-path:url(#SVGID_00000129174038678264954460000011223418122748942768_);fill:none;stroke:#767676;stroke-width:1.0484;}
	.st11{clip-path:url(#SVGID_00000129174038678264954460000011223418122748942768_);fill:none;stroke:#000000;stroke-width:2.0967;}
	.st12{clip-path:url(#SVGID_00000063629046216448806680000009214411619065255082_);}
	.st13{clip-path:url(#SVGID_00000117647815688816036510000015822286972933268626_);fill:#FFFFFF;}
	.st14{clip-path:url(#SVGID_00000117647815688816036510000015822286972933268626_);fill:none;stroke:#767676;stroke-width:1.0484;}
	.st15{clip-path:url(#SVGID_00000117647815688816036510000015822286972933268626_);fill:none;stroke:#000000;stroke-width:2.0967;}
	.st16{clip-path:url(#SVGID_00000101103285712779144390000009420447278061119645_);}
	.st17{clip-path:url(#SVGID_00000014596342367352760540000009789475862640208793_);fill:#FFFFFF;}
	.st18{clip-path:url(#SVGID_00000014596342367352760540000009789475862640208793_);fill:none;stroke:#767676;stroke-width:1.0484;}
	.st19{clip-path:url(#SVGID_00000062885379843243285740000009056795525455090311_);}
	.st20{clip-path:url(#SVGID_00000063605362364309744290000011507073463099300745_);}
	.st21{fill:#767676;}
	.st22{fill:url(#SVGID_00000040558871617929578810000004973804812685511347_);}
	.st23{clip-path:url(#SVGID_00000003063054861904576410000003242063337473811373_);fill:#222222;}
	.st24{opacity:0.698;enable-background:new    ;}
	.st25{clip-path:url(#SVGID_00000023243074956439062960000004308354146443798176_);fill:#808080;}
	.st26{clip-path:url(#SVGID_00000023243074956439062960000004308354146443798176_);fill:#FFFFFF;}
	.st27{clip-path:url(#SVGID_00000178195512638190658550000018120341026237344688_);fill:#FFFFFF;}
	.st28{fill:#1A192B;}
	.st29{fill:none;stroke:#000000;stroke-width:1.0484;}
	.st30{clip-path:url(#SVGID_00000070833726314972618770000008705858002656165508_);fill:#FFFFFF;}
	.st31{fill:#90A19D;}
</style>
<g>
	<g>
		<path class="st0" d="M0.17,84.82c20.29-6.92,43.69-11.07,71.76-11.07"/>
		<path class="st0" d="M258.54,275.27c28.55,0,46.72-11.52,62.06-26.19"/>
		<path class="st1" d="M75.6,297.02V47.51H247c0.52,0,1.03,0.05,1.53,0.15s1,0.25,1.47,0.45c0.48,0.2,0.93,0.44,1.36,0.73
			s0.83,0.61,1.19,0.98c0.37,0.37,0.69,0.76,0.98,1.19c0.29,0.43,0.53,0.88,0.73,1.36c0.2,0.48,0.35,0.97,0.45,1.47
			s0.15,1.02,0.15,1.53v241.65H75.6z"/>
		<path class="st2" d="M75.6,297.02V47.51H247c0.52,0,1.03,0.05,1.53,0.15s1,0.25,1.47,0.45c0.48,0.2,0.93,0.44,1.36,0.73
			s0.83,0.61,1.19,0.98c0.37,0.37,0.69,0.76,0.98,1.19c0.29,0.43,0.53,0.88,0.73,1.36c0.2,0.48,0.35,0.97,0.45,1.47
			s0.15,1.02,0.15,1.53v241.65H75.6z"/>
		<rect x="76.12" y="94.17" width="178.22" height="1.05"/>
		<rect x="76.12" y="246.18" width="178.22" height="1.05"/>
	</g>
	<g>
		<defs>
			<rect id="SVGID_1_" x="86.6" y="64.81" width="157.25" height="15.73"/>
		</defs>
		<clipPath id="SVGID_00000047061534070566207560000005127872181660642438_">
			<use xlink:href="#SVGID_1_"  style="overflow:visible;"/>
		</clipPath>
		<path style="clip-path:url(#SVGID_00000047061534070566207560000005127872181660642438_);fill:#222222;" d="M90.31,77.51
			c0.53,0,0.99-0.09,1.36-0.26s0.68-0.42,0.91-0.73c0.23-0.31,0.39-0.66,0.48-1.06l0.01-0.07l-1.06,0.01L92,75.43
			c-0.12,0.37-0.33,0.65-0.61,0.84c-0.28,0.19-0.65,0.29-1.09,0.29c-0.39,0-0.74-0.1-1.03-0.31c-0.29-0.2-0.52-0.49-0.68-0.87
			c-0.16-0.37-0.24-0.82-0.24-1.32v-0.01c0-0.5,0.08-0.93,0.24-1.3c0.16-0.37,0.38-0.65,0.67-0.85c0.29-0.2,0.63-0.3,1.03-0.3
			c0.48,0,0.86,0.11,1.15,0.34c0.29,0.23,0.48,0.51,0.56,0.84l0.01,0.02h1.06l-0.01-0.04c-0.07-0.39-0.21-0.75-0.45-1.07
			c-0.23-0.32-0.54-0.57-0.93-0.76s-0.85-0.28-1.39-0.28c-0.62,0-1.15,0.14-1.61,0.42c-0.45,0.28-0.81,0.67-1.05,1.18
			s-0.37,1.11-0.37,1.79v0.01c0,0.7,0.12,1.31,0.37,1.82c0.25,0.52,0.6,0.92,1.06,1.2C89.15,77.37,89.69,77.51,90.31,77.51z"/>
		<path style="clip-path:url(#SVGID_00000047061534070566207560000005127872181660642438_);fill:#222222;" d="M97.36,76.56
			c-0.42,0-0.77-0.1-1.06-0.29c-0.29-0.2-0.51-0.48-0.67-0.85c-0.15-0.37-0.23-0.81-0.23-1.33v-0.01c0-0.52,0.08-0.97,0.23-1.34
			c0.15-0.37,0.38-0.65,0.67-0.84c0.29-0.19,0.65-0.29,1.06-0.29c0.42,0,0.77,0.1,1.06,0.29c0.29,0.19,0.51,0.48,0.67,0.84
			c0.15,0.37,0.23,0.81,0.23,1.34v0.01c0,0.52-0.08,0.96-0.23,1.33c-0.15,0.37-0.38,0.65-0.67,0.85
			C98.13,76.46,97.78,76.56,97.36,76.56z M97.36,77.51c0.63,0,1.17-0.14,1.63-0.41c0.45-0.28,0.81-0.67,1.05-1.18
			s0.37-1.12,0.37-1.82v-0.01c0-0.71-0.12-1.32-0.37-1.83s-0.6-0.91-1.05-1.18c-0.45-0.27-1-0.41-1.63-0.41
			c-0.63,0-1.17,0.14-1.62,0.41c-0.46,0.27-0.81,0.67-1.06,1.18s-0.37,1.12-0.37,1.83v0.01c0,0.7,0.12,1.31,0.37,1.82
			s0.6,0.91,1.06,1.18S96.73,77.51,97.36,77.51z"/>
		
			<rect x="102.13" y="68.14" style="clip-path:url(#SVGID_00000047061534070566207560000005127872181660642438_);fill:#222222;" width="1.07" height="9.25"/>
		<path style="clip-path:url(#SVGID_00000047061534070566207560000005127872181660642438_);fill:#222222;" d="M107.47,77.51
			c0.32,0,0.61-0.04,0.87-0.13c0.26-0.09,0.48-0.21,0.66-0.38c0.18-0.17,0.33-0.37,0.44-0.6h0.1v0.99h1.07v-6.62h-1.07v3.92
			c0,0.29-0.04,0.55-0.11,0.78s-0.19,0.43-0.34,0.59c-0.15,0.16-0.34,0.29-0.56,0.37c-0.22,0.09-0.48,0.13-0.77,0.13
			c-0.53,0-0.91-0.15-1.14-0.44c-0.23-0.29-0.35-0.73-0.35-1.33v-4.03h-1.07v4.29c0,0.52,0.08,0.96,0.25,1.33
			c0.17,0.37,0.42,0.64,0.76,0.84S106.97,77.51,107.47,77.51z"/>
		<path style="clip-path:url(#SVGID_00000047061534070566207560000005127872181660642438_);fill:#222222;" d="M112.59,77.39h1.07
			v-4.1c0-0.31,0.07-0.59,0.2-0.85c0.13-0.26,0.32-0.46,0.55-0.61c0.23-0.15,0.49-0.23,0.78-0.23c0.28,0,0.52,0.05,0.73,0.16
			c0.21,0.11,0.37,0.26,0.48,0.45s0.17,0.42,0.17,0.68v4.5h1.07v-4.26c0-0.28,0.06-0.54,0.19-0.77s0.31-0.42,0.53-0.56
			c0.23-0.14,0.5-0.21,0.8-0.21c0.31,0,0.57,0.05,0.77,0.16c0.2,0.11,0.36,0.27,0.46,0.49c0.1,0.22,0.15,0.49,0.15,0.81v4.33h1.07
			v-4.58c0-0.46-0.08-0.85-0.25-1.18c-0.16-0.32-0.4-0.57-0.72-0.73c-0.31-0.17-0.7-0.25-1.15-0.25c-0.3,0-0.59,0.05-0.85,0.14
			c-0.26,0.1-0.5,0.23-0.7,0.41c-0.2,0.17-0.36,0.38-0.48,0.61h-0.1c-0.1-0.23-0.24-0.43-0.41-0.61c-0.17-0.17-0.38-0.31-0.61-0.41
			c-0.24-0.1-0.51-0.15-0.8-0.15c-0.43,0-0.8,0.1-1.11,0.29c-0.31,0.2-0.53,0.47-0.68,0.83h-0.1v-1.01h-1.07V77.39z"/>
		<path style="clip-path:url(#SVGID_00000047061534070566207560000005127872181660642438_);fill:#222222;" d="M123.54,77.39h1.07
			v-3.92c0-0.39,0.07-0.72,0.21-1c0.14-0.28,0.34-0.49,0.6-0.64c0.26-0.15,0.56-0.23,0.92-0.23c0.53,0,0.92,0.14,1.17,0.43
			c0.25,0.29,0.38,0.73,0.38,1.33v4.03h1.07V73.1c0-0.79-0.2-1.39-0.6-1.82c-0.4-0.42-0.97-0.64-1.72-0.64
			c-0.49,0-0.89,0.1-1.2,0.29s-0.56,0.47-0.72,0.82h-0.1v-1h-1.07V77.39z"/>
	</g>
	<g>
		<path class="st4" d="M97.25,126.67h1.11v-8.86h-1.11V126.67z M97.8,123.5h2.79c0.56,0,1.05-0.12,1.47-0.36
			c0.43-0.24,0.76-0.58,1-1.01s0.37-0.93,0.37-1.49v-0.01c0-0.56-0.12-1.05-0.37-1.48c-0.24-0.43-0.58-0.76-1-1
			c-0.43-0.24-0.92-0.36-1.47-0.36H97.8v0.98h2.51c0.63,0,1.13,0.16,1.47,0.49c0.35,0.33,0.52,0.78,0.52,1.37v0.01
			c0,0.58-0.17,1.04-0.52,1.37s-0.84,0.49-1.47,0.49H97.8V123.5z"/>
		<path class="st4" d="M105.11,126.67h1.07v-4.1c0-0.32,0.07-0.61,0.22-0.85c0.15-0.24,0.36-0.43,0.62-0.57s0.56-0.2,0.9-0.2
			c0.12,0,0.23,0.01,0.33,0.02c0.1,0.01,0.21,0.03,0.32,0.05v-1.04c-0.05-0.01-0.13-0.02-0.23-0.03s-0.2-0.02-0.3-0.02
			c-0.45,0-0.82,0.1-1.12,0.29c-0.3,0.19-0.52,0.46-0.65,0.81h-0.1v-0.98h-1.07V126.67z"/>
		<path class="st4" d="M112.42,126.78c0.39,0,0.74-0.05,1.05-0.15c0.31-0.1,0.58-0.24,0.81-0.41c0.23-0.17,0.42-0.36,0.56-0.57
			c0.15-0.21,0.25-0.43,0.3-0.65l0.01-0.05h-1.07l-0.02,0.06c-0.06,0.13-0.16,0.26-0.3,0.39s-0.33,0.23-0.55,0.31
			s-0.48,0.12-0.78,0.12c-0.4,0-0.75-0.09-1.04-0.27c-0.29-0.18-0.52-0.43-0.68-0.77c-0.16-0.33-0.24-0.74-0.24-1.21v-0.42
			c0-0.5,0.08-0.91,0.25-1.25c0.16-0.34,0.39-0.6,0.67-0.77c0.28-0.17,0.6-0.26,0.96-0.26s0.67,0.08,0.95,0.25s0.49,0.42,0.64,0.75
			c0.16,0.34,0.23,0.76,0.23,1.28v0.42l0.53-0.78h-4.76v0.85h5.31v-0.42c0-0.66-0.12-1.24-0.35-1.74s-0.56-0.89-1-1.16
			c-0.43-0.28-0.95-0.42-1.55-0.42c-0.6,0-1.12,0.15-1.57,0.44c-0.45,0.29-0.79,0.69-1.04,1.21c-0.24,0.52-0.37,1.12-0.37,1.8v0.01
			c0,0.69,0.12,1.29,0.37,1.8c0.24,0.51,0.59,0.9,1.04,1.18C111.25,126.64,111.79,126.78,112.42,126.78z"/>
		<path class="st4" d="M119.18,126.78c0.5,0,0.96-0.08,1.35-0.25c0.4-0.17,0.72-0.4,0.95-0.7c0.23-0.3,0.35-0.65,0.35-1.04v-0.01
			c0-0.32-0.07-0.59-0.2-0.82c-0.14-0.23-0.34-0.42-0.61-0.58c-0.27-0.16-0.62-0.29-1.04-0.39l-1.02-0.25
			c-0.26-0.07-0.47-0.14-0.63-0.23s-0.28-0.19-0.36-0.3c-0.08-0.11-0.12-0.25-0.12-0.39v-0.01c0-0.2,0.06-0.37,0.18-0.52
			c0.12-0.15,0.28-0.26,0.49-0.35c0.2-0.08,0.44-0.13,0.7-0.13c0.4,0,0.73,0.08,0.98,0.25s0.41,0.38,0.48,0.64h1.05
			c-0.05-0.36-0.18-0.67-0.4-0.94c-0.22-0.27-0.51-0.47-0.87-0.62s-0.77-0.22-1.23-0.22c-0.47,0-0.89,0.08-1.26,0.25
			c-0.37,0.17-0.67,0.4-0.88,0.69c-0.21,0.29-0.32,0.62-0.32,0.99v0.01c0,0.32,0.06,0.59,0.19,0.82c0.13,0.23,0.32,0.43,0.59,0.58
			c0.27,0.16,0.61,0.29,1.02,0.38l1.03,0.25c0.41,0.1,0.7,0.23,0.88,0.38c0.18,0.16,0.27,0.35,0.27,0.57v0.01
			c0,0.2-0.07,0.38-0.2,0.53s-0.31,0.27-0.54,0.36c-0.23,0.09-0.49,0.13-0.79,0.13c-0.42,0-0.76-0.08-1.03-0.25
			s-0.44-0.39-0.53-0.66h-1.09c0.04,0.36,0.18,0.68,0.4,0.95s0.53,0.48,0.91,0.63C118.25,126.71,118.68,126.78,119.18,126.78z"/>
		<path class="st4" d="M126.19,126.78c0.39,0,0.74-0.05,1.05-0.15c0.31-0.1,0.58-0.24,0.81-0.41c0.23-0.17,0.42-0.36,0.56-0.57
			c0.15-0.21,0.25-0.43,0.3-0.65l0.01-0.05h-1.07l-0.02,0.06c-0.06,0.13-0.16,0.26-0.3,0.39s-0.33,0.23-0.55,0.31
			s-0.48,0.12-0.78,0.12c-0.4,0-0.75-0.09-1.04-0.27c-0.29-0.18-0.52-0.43-0.68-0.77c-0.16-0.33-0.24-0.74-0.24-1.21v-0.42
			c0-0.5,0.08-0.91,0.25-1.25c0.16-0.34,0.39-0.6,0.67-0.77c0.28-0.17,0.6-0.26,0.96-0.26s0.67,0.08,0.95,0.25s0.49,0.42,0.64,0.75
			c0.16,0.34,0.23,0.76,0.23,1.28v0.42l0.53-0.78h-4.76v0.85h5.31v-0.42c0-0.66-0.12-1.24-0.35-1.74s-0.56-0.89-1-1.16
			c-0.43-0.28-0.95-0.42-1.55-0.42c-0.6,0-1.12,0.15-1.57,0.44c-0.45,0.29-0.79,0.69-1.04,1.21c-0.24,0.52-0.37,1.12-0.37,1.8v0.01
			c0,0.69,0.12,1.29,0.37,1.8c0.24,0.51,0.59,0.9,1.04,1.18C125.02,126.64,125.56,126.78,126.19,126.78z"/>
		<path class="st4" d="M133.03,126.71c0.11,0,0.21-0.01,0.31-0.02c0.1-0.01,0.2-0.03,0.31-0.04v-0.91c-0.1,0.01-0.18,0.01-0.25,0.02
			c-0.07,0-0.15,0.01-0.24,0.01c-0.34,0-0.59-0.08-0.74-0.25c-0.15-0.17-0.22-0.45-0.22-0.84v-3.75h1.45v-0.88h-1.45v-1.71h-1.11
			v1.71h-1.04v0.88h1.04v4.02c0,0.63,0.15,1.08,0.46,1.36C131.85,126.58,132.35,126.71,133.03,126.71z"/>
		<path class="st4" d="M136.12,121.97c0.22,0,0.41-0.08,0.57-0.24c0.16-0.16,0.23-0.34,0.23-0.56c0-0.22-0.08-0.41-0.23-0.57
			c-0.16-0.16-0.34-0.23-0.57-0.23c-0.22,0-0.4,0.08-0.56,0.23c-0.16,0.16-0.24,0.34-0.24,0.57c0,0.22,0.08,0.4,0.24,0.56
			C135.71,121.89,135.9,121.97,136.12,121.97z M136.12,126.73c0.22,0,0.41-0.08,0.57-0.24c0.16-0.16,0.23-0.35,0.23-0.56
			c0-0.22-0.08-0.41-0.23-0.57c-0.16-0.16-0.34-0.23-0.57-0.23c-0.22,0-0.4,0.08-0.56,0.23c-0.16,0.16-0.24,0.34-0.24,0.57
			c0,0.22,0.08,0.4,0.24,0.56C135.71,126.65,135.9,126.73,136.12,126.73z"/>
	</g>
	<g>
		<defs>
			<rect id="SVGID_00000134958560208783654700000010522512711785942936_" x="143.22" y="111.99" width="100.64" height="19.92"/>
		</defs>
		<clipPath id="SVGID_00000162335931484578714160000014788778195477854141_">
			<use xlink:href="#SVGID_00000134958560208783654700000010522512711785942936_"  style="overflow:visible;"/>
		</clipPath>
		<path style="clip-path:url(#SVGID_00000162335931484578714160000014788778195477854141_);fill:#FFFFFF;" d="M143.74,129.29v-14.68
			c0-0.28,0.05-0.55,0.16-0.8c0.11-0.26,0.26-0.48,0.45-0.68c0.2-0.2,0.42-0.35,0.68-0.45c0.26-0.11,0.52-0.16,0.8-0.16h95.4
			c0.28,0,0.55,0.05,0.8,0.16c0.26,0.11,0.48,0.26,0.68,0.45s0.35,0.42,0.45,0.68c0.11,0.26,0.16,0.52,0.16,0.8v14.68
			c0,0.28-0.05,0.55-0.16,0.8c-0.11,0.26-0.26,0.48-0.45,0.68c-0.2,0.2-0.42,0.35-0.68,0.45c-0.26,0.11-0.52,0.16-0.8,0.16h-95.4
			c-0.28,0-0.55-0.05-0.8-0.16c-0.26-0.11-0.48-0.26-0.68-0.45c-0.2-0.2-0.35-0.42-0.45-0.68
			C143.79,129.83,143.74,129.56,143.74,129.29z"/>
		
			<path style="clip-path:url(#SVGID_00000162335931484578714160000014788778195477854141_);fill:none;stroke:#767676;stroke-width:1.0484;" d="
			M143.74,129.29v-14.68c0-0.28,0.05-0.55,0.16-0.8c0.11-0.26,0.26-0.48,0.45-0.68c0.2-0.2,0.42-0.35,0.68-0.45
			c0.26-0.11,0.52-0.16,0.8-0.16h95.4c0.28,0,0.55,0.05,0.8,0.16c0.26,0.11,0.48,0.26,0.68,0.45s0.35,0.42,0.45,0.68
			c0.11,0.26,0.16,0.52,0.16,0.8v14.68c0,0.28-0.05,0.55-0.16,0.8c-0.11,0.26-0.26,0.48-0.45,0.68c-0.2,0.2-0.42,0.35-0.68,0.45
			c-0.26,0.11-0.52,0.16-0.8,0.16h-95.4c-0.28,0-0.55-0.05-0.8-0.16c-0.26-0.11-0.48-0.26-0.68-0.45c-0.2-0.2-0.35-0.42-0.45-0.68
			C143.79,129.83,143.74,129.56,143.74,129.29z"/>
		
			<polyline style="clip-path:url(#SVGID_00000162335931484578714160000014788778195477854141_);fill:none;stroke:#000000;stroke-width:2.0967;" points="
			227.89,119.33 232.08,123.52 236.28,119.33 		"/>
	</g>
	<g>
		<defs>
			<rect id="SVGID_00000114038845152510133010000014519297281516081284_" x="148.46" y="113.04" width="61.85" height="17.82"/>
		</defs>
		<clipPath id="SVGID_00000067202327174406609560000016344210045657689989_">
			<use xlink:href="#SVGID_00000114038845152510133010000014519297281516081284_"  style="overflow:visible;"/>
		</clipPath>
		<path style="clip-path:url(#SVGID_00000067202327174406609560000016344210045657689989_);" d="M151.73,126.78
			c0.5,0,0.96-0.08,1.35-0.25c0.4-0.17,0.72-0.4,0.95-0.7c0.23-0.3,0.35-0.65,0.35-1.04v-0.01c0-0.32-0.07-0.59-0.2-0.82
			c-0.14-0.23-0.34-0.42-0.61-0.58c-0.27-0.16-0.62-0.29-1.04-0.39l-1.02-0.25c-0.26-0.07-0.47-0.14-0.63-0.23s-0.28-0.19-0.36-0.3
			c-0.08-0.11-0.12-0.25-0.12-0.39v-0.01c0-0.2,0.06-0.37,0.18-0.52c0.12-0.15,0.28-0.26,0.49-0.35c0.2-0.08,0.44-0.13,0.7-0.13
			c0.4,0,0.73,0.08,0.98,0.25s0.41,0.38,0.48,0.64h1.05c-0.05-0.36-0.18-0.67-0.4-0.94c-0.22-0.27-0.51-0.47-0.87-0.62
			s-0.77-0.22-1.23-0.22c-0.47,0-0.89,0.08-1.26,0.25c-0.37,0.17-0.67,0.4-0.88,0.69c-0.21,0.29-0.32,0.62-0.32,0.99v0.01
			c0,0.32,0.06,0.59,0.19,0.82c0.13,0.23,0.32,0.43,0.59,0.58c0.27,0.16,0.61,0.29,1.02,0.38l1.03,0.25c0.41,0.1,0.7,0.23,0.88,0.38
			c0.18,0.16,0.27,0.35,0.27,0.57v0.01c0,0.2-0.07,0.38-0.2,0.53s-0.31,0.27-0.54,0.36c-0.23,0.09-0.49,0.13-0.79,0.13
			c-0.42,0-0.76-0.08-1.03-0.25s-0.44-0.39-0.53-0.66h-1.09c0.04,0.36,0.18,0.68,0.4,0.95s0.53,0.48,0.91,0.63
			C150.8,126.71,151.23,126.78,151.73,126.78z"/>
		<path style="clip-path:url(#SVGID_00000067202327174406609560000016344210045657689989_);" d="M156.04,126.67h1.07v-4.1
			c0-0.31,0.07-0.59,0.2-0.85c0.13-0.26,0.32-0.46,0.55-0.61c0.23-0.15,0.49-0.23,0.78-0.23c0.28,0,0.52,0.05,0.73,0.16
			c0.21,0.11,0.37,0.26,0.48,0.45s0.17,0.42,0.17,0.68v4.5h1.07v-4.26c0-0.28,0.06-0.54,0.19-0.77s0.31-0.42,0.53-0.56
			c0.23-0.14,0.5-0.21,0.8-0.21c0.31,0,0.57,0.05,0.77,0.16c0.2,0.11,0.36,0.27,0.46,0.49c0.1,0.21,0.15,0.49,0.15,0.81v4.33h1.07
			v-4.58c0-0.46-0.08-0.85-0.25-1.18c-0.16-0.32-0.4-0.57-0.72-0.73c-0.31-0.17-0.7-0.25-1.15-0.25c-0.3,0-0.59,0.05-0.85,0.14
			c-0.26,0.1-0.5,0.23-0.7,0.41c-0.2,0.17-0.36,0.38-0.48,0.61h-0.1c-0.1-0.23-0.24-0.43-0.41-0.61c-0.17-0.17-0.38-0.31-0.61-0.41
			c-0.24-0.1-0.51-0.15-0.8-0.15c-0.43,0-0.8,0.1-1.11,0.29c-0.31,0.2-0.53,0.47-0.68,0.83h-0.1v-1.01h-1.07V126.67z"/>
		<path style="clip-path:url(#SVGID_00000067202327174406609560000016344210045657689989_);" d="M167.55,118.77
			c0.2,0,0.38-0.07,0.52-0.22c0.14-0.15,0.21-0.32,0.21-0.52c0-0.2-0.07-0.38-0.21-0.52c-0.14-0.14-0.32-0.21-0.52-0.21
			c-0.2,0-0.37,0.07-0.52,0.21c-0.15,0.14-0.22,0.32-0.22,0.52c0,0.2,0.07,0.37,0.22,0.52S167.35,118.77,167.55,118.77z
			 M167.01,126.67h1.07v-6.62h-1.07V126.67z"/>
		<path style="clip-path:url(#SVGID_00000067202327174406609560000016344210045657689989_);" d="M172.44,126.71
			c0.11,0,0.21-0.01,0.31-0.02c0.1-0.01,0.2-0.03,0.31-0.04v-0.91c-0.1,0.01-0.18,0.01-0.25,0.02c-0.07,0-0.15,0.01-0.24,0.01
			c-0.34,0-0.59-0.08-0.74-0.25c-0.15-0.17-0.22-0.45-0.22-0.84v-3.75h1.45v-0.88h-1.45v-1.71h-1.11v1.71h-1.04v0.88h1.04v4.02
			c0,0.63,0.15,1.08,0.46,1.36C171.27,126.58,171.76,126.71,172.44,126.71z"/>
		<path style="clip-path:url(#SVGID_00000067202327174406609560000016344210045657689989_);" d="M174.72,126.67h1.07v-3.92
			c0-0.39,0.07-0.72,0.21-1c0.14-0.28,0.34-0.49,0.6-0.64c0.26-0.15,0.56-0.23,0.92-0.23c0.53,0,0.92,0.14,1.17,0.43
			c0.25,0.29,0.38,0.73,0.38,1.33v4.03h1.07v-4.29c0-0.52-0.09-0.97-0.27-1.33c-0.18-0.36-0.44-0.64-0.79-0.83s-0.76-0.29-1.26-0.29
			c-0.49,0-0.89,0.1-1.2,0.29c-0.32,0.19-0.56,0.47-0.72,0.82h-0.1v-3.62h-1.07V126.67z"/>
		<polygon style="clip-path:url(#SVGID_00000067202327174406609560000016344210045657689989_);" points="183.03,126.67 
			184.1,126.67 185.58,121.54 185.68,121.54 187.16,126.67 188.23,126.67 190.09,120.04 189.02,120.04 187.72,125.34 187.62,125.34 
			186.14,120.04 185.13,120.04 183.65,125.34 183.55,125.34 182.25,120.04 181.18,120.04 		"/>
		<path style="clip-path:url(#SVGID_00000067202327174406609560000016344210045657689989_);" d="M193.13,126.78
			c0.3,0,0.57-0.04,0.82-0.13s0.47-0.21,0.67-0.37s0.37-0.36,0.51-0.6h0.1v0.98h1.07v-4.53c0-0.46-0.1-0.85-0.29-1.18
			s-0.48-0.58-0.85-0.76s-0.83-0.26-1.37-0.26c-0.47,0-0.89,0.07-1.26,0.22c-0.37,0.15-0.67,0.35-0.9,0.61
			c-0.23,0.26-0.38,0.56-0.43,0.91l-0.01,0.04h1.07l0.01-0.02c0.09-0.26,0.26-0.46,0.51-0.6c0.25-0.14,0.58-0.21,0.98-0.21
			c0.5,0,0.87,0.11,1.11,0.32c0.25,0.21,0.37,0.53,0.37,0.94v2.06c0,0.32-0.08,0.6-0.24,0.85c-0.16,0.25-0.38,0.45-0.67,0.59
			c-0.28,0.15-0.61,0.22-0.97,0.22c-0.38,0-0.7-0.09-0.96-0.28s-0.38-0.45-0.38-0.78v-0.01c0-0.33,0.12-0.58,0.35-0.76
			c0.23-0.18,0.6-0.28,1.1-0.31l2.3-0.15v-0.85l-2.43,0.15c-0.51,0.03-0.95,0.12-1.31,0.28c-0.36,0.16-0.63,0.38-0.82,0.66
			c-0.19,0.28-0.28,0.62-0.28,1.01v0.01c0,0.4,0.1,0.75,0.29,1.04s0.46,0.52,0.79,0.68C192.34,126.7,192.72,126.78,193.13,126.78z"
			/>
		
			<rect x="198.32" y="117.41" style="clip-path:url(#SVGID_00000067202327174406609560000016344210045657689989_);" width="1.07" height="9.25"/>
		<path style="clip-path:url(#SVGID_00000067202327174406609560000016344210045657689989_);" d="M203.79,126.71
			c0.11,0,0.21-0.01,0.31-0.02c0.1-0.01,0.2-0.03,0.31-0.04v-0.91c-0.1,0.01-0.18,0.01-0.25,0.02c-0.07,0-0.15,0.01-0.24,0.01
			c-0.34,0-0.59-0.08-0.74-0.25c-0.15-0.17-0.22-0.45-0.22-0.84v-3.75h1.45v-0.88h-1.45v-1.71h-1.11v1.71h-1.04v0.88h1.04v4.02
			c0,0.63,0.15,1.08,0.46,1.36C202.62,126.58,203.11,126.71,203.79,126.71z"/>
	</g>
	<g>
		<polygon class="st4" points="108.81,150.78 109.92,150.78 109.92,142.91 112.77,142.91 112.77,141.91 105.95,141.91 
			105.95,142.91 108.81,142.91 		"/>
		<path class="st4" d="M114.11,153.1c0.39,0,0.72-0.06,0.99-0.17s0.5-0.31,0.7-0.59c0.2-0.28,0.39-0.67,0.57-1.16l2.59-7.03h-1.12
			l-2.03,6.12l0.42-0.67h-0.5l0.42,0.67l-2.04-6.12h-1.14l2.45,6.63l-0.12,0.39c-0.12,0.38-0.28,0.65-0.47,0.8s-0.44,0.23-0.75,0.23
			c-0.07,0-0.15,0-0.23-0.01s-0.15-0.01-0.21-0.02v0.88c0.07,0.01,0.15,0.02,0.24,0.03C113.96,153.1,114.04,153.1,114.11,153.1z"/>
		<path class="st4" d="M123.36,149.95c-0.4,0-0.75-0.1-1.04-0.3c-0.29-0.2-0.51-0.49-0.67-0.86c-0.16-0.37-0.23-0.81-0.23-1.32
			v-0.01c0-0.51,0.08-0.95,0.23-1.32c0.16-0.37,0.38-0.65,0.67-0.85c0.29-0.2,0.64-0.3,1.04-0.3c0.41,0,0.75,0.1,1.04,0.3
			c0.29,0.2,0.51,0.48,0.66,0.85c0.15,0.37,0.23,0.81,0.23,1.33v0.01c0,0.51-0.08,0.95-0.23,1.32s-0.37,0.66-0.66,0.85
			C124.11,149.85,123.77,149.95,123.36,149.95z M120.38,152.99h1.07v-3.26h0.1c0.12,0.24,0.29,0.44,0.49,0.61s0.44,0.31,0.71,0.4
			c0.27,0.1,0.55,0.14,0.86,0.14c0.56,0,1.05-0.14,1.47-0.42c0.42-0.28,0.74-0.68,0.97-1.19c0.23-0.51,0.34-1.11,0.34-1.81v-0.01
			c0-0.69-0.11-1.29-0.34-1.8c-0.23-0.51-0.55-0.91-0.97-1.19s-0.9-0.43-1.47-0.43c-0.31,0-0.59,0.05-0.85,0.14s-0.5,0.23-0.7,0.4
			c-0.2,0.17-0.37,0.38-0.51,0.63h-0.1v-1.06h-1.07V152.99z"/>
		<path class="st4" d="M130.76,150.89c0.39,0,0.74-0.05,1.05-0.15c0.31-0.1,0.58-0.24,0.81-0.41c0.23-0.17,0.42-0.36,0.56-0.57
			c0.15-0.21,0.25-0.43,0.3-0.65l0.01-0.05h-1.07l-0.02,0.06c-0.06,0.13-0.16,0.26-0.3,0.39s-0.33,0.23-0.55,0.31
			s-0.48,0.12-0.78,0.12c-0.4,0-0.75-0.09-1.04-0.27c-0.29-0.18-0.52-0.43-0.68-0.77c-0.16-0.33-0.24-0.74-0.24-1.21v-0.42
			c0-0.5,0.08-0.91,0.25-1.25c0.16-0.34,0.39-0.6,0.67-0.77c0.28-0.17,0.6-0.26,0.96-0.26s0.67,0.08,0.95,0.25s0.49,0.42,0.64,0.75
			c0.16,0.34,0.23,0.76,0.23,1.28v0.42l0.53-0.78h-4.76v0.85h5.31v-0.42c0-0.66-0.12-1.24-0.35-1.74s-0.56-0.89-1-1.16
			c-0.43-0.28-0.95-0.42-1.55-0.42c-0.6,0-1.12,0.15-1.57,0.44c-0.45,0.29-0.79,0.69-1.04,1.21c-0.24,0.52-0.37,1.12-0.37,1.8v0.01
			c0,0.69,0.12,1.29,0.37,1.8c0.24,0.51,0.59,0.9,1.04,1.18C129.59,150.75,130.13,150.89,130.76,150.89z"/>
		<path class="st4" d="M136.11,146.08c0.22,0,0.41-0.08,0.57-0.24c0.16-0.16,0.23-0.35,0.23-0.56c0-0.22-0.08-0.41-0.23-0.57
			c-0.16-0.16-0.34-0.23-0.57-0.23c-0.22,0-0.4,0.08-0.56,0.23c-0.16,0.16-0.24,0.34-0.24,0.57c0,0.22,0.08,0.4,0.24,0.56
			C135.71,146.01,135.9,146.08,136.11,146.08z M136.11,150.84c0.22,0,0.41-0.08,0.57-0.24c0.16-0.16,0.23-0.35,0.23-0.56
			c0-0.22-0.08-0.41-0.23-0.57c-0.16-0.16-0.34-0.23-0.57-0.23c-0.22,0-0.4,0.08-0.56,0.23c-0.16,0.16-0.24,0.34-0.24,0.57
			c0,0.22,0.08,0.4,0.24,0.56C135.71,150.76,135.9,150.84,136.11,150.84z"/>
	</g>
	<g>
		<defs>
			<rect id="SVGID_00000163769834824488434910000002450656163156876940_" x="143.22" y="136.1" width="100.64" height="19.92"/>
		</defs>
		<clipPath id="SVGID_00000157279759052466170620000013856583085270323853_">
			<use xlink:href="#SVGID_00000163769834824488434910000002450656163156876940_"  style="overflow:visible;"/>
		</clipPath>
		<path style="clip-path:url(#SVGID_00000157279759052466170620000013856583085270323853_);fill:#FFFFFF;" d="M143.74,153.4v-14.68
			c0-0.28,0.05-0.55,0.16-0.8c0.11-0.26,0.26-0.48,0.45-0.68c0.2-0.2,0.42-0.35,0.68-0.45c0.26-0.11,0.52-0.16,0.8-0.16h95.4
			c0.28,0,0.55,0.05,0.8,0.16c0.26,0.11,0.48,0.26,0.68,0.45c0.2,0.2,0.35,0.42,0.45,0.68c0.11,0.26,0.16,0.52,0.16,0.8v14.68
			c0,0.28-0.05,0.55-0.16,0.8c-0.11,0.26-0.26,0.48-0.45,0.68c-0.2,0.2-0.42,0.35-0.68,0.45c-0.26,0.11-0.52,0.16-0.8,0.16h-95.4
			c-0.28,0-0.55-0.05-0.8-0.16c-0.26-0.11-0.48-0.26-0.68-0.45c-0.2-0.2-0.35-0.42-0.45-0.68
			C143.79,153.94,143.74,153.68,143.74,153.4z"/>
		
			<path style="clip-path:url(#SVGID_00000157279759052466170620000013856583085270323853_);fill:none;stroke:#767676;stroke-width:1.0484;" d="
			M143.74,153.4v-14.68c0-0.28,0.05-0.55,0.16-0.8c0.11-0.26,0.26-0.48,0.45-0.68c0.2-0.2,0.42-0.35,0.68-0.45
			c0.26-0.11,0.52-0.16,0.8-0.16h95.4c0.28,0,0.55,0.05,0.8,0.16c0.26,0.11,0.48,0.26,0.68,0.45c0.2,0.2,0.35,0.42,0.45,0.68
			c0.11,0.26,0.16,0.52,0.16,0.8v14.68c0,0.28-0.05,0.55-0.16,0.8c-0.11,0.26-0.26,0.48-0.45,0.68c-0.2,0.2-0.42,0.35-0.68,0.45
			c-0.26,0.11-0.52,0.16-0.8,0.16h-95.4c-0.28,0-0.55-0.05-0.8-0.16c-0.26-0.11-0.48-0.26-0.68-0.45c-0.2-0.2-0.35-0.42-0.45-0.68
			C143.79,153.94,143.74,153.68,143.74,153.4z"/>
		
			<polyline style="clip-path:url(#SVGID_00000157279759052466170620000013856583085270323853_);fill:none;stroke:#000000;stroke-width:2.0967;" points="
			227.89,143.44 232.08,147.63 236.28,143.44 		"/>
	</g>
	<g>
		<defs>
			<rect id="SVGID_00000036209895364197775910000006796004019123222159_" x="148.46" y="137.15" width="61.85" height="17.82"/>
		</defs>
		<clipPath id="SVGID_00000119796397060567579130000013781874228035820710_">
			<use xlink:href="#SVGID_00000036209895364197775910000006796004019123222159_"  style="overflow:visible;"/>
		</clipPath>
		<path style="clip-path:url(#SVGID_00000119796397060567579130000013781874228035820710_);" d="M151.73,150.89
			c0.5,0,0.96-0.08,1.35-0.25c0.4-0.17,0.72-0.4,0.95-0.7c0.23-0.3,0.35-0.65,0.35-1.04v-0.01c0-0.32-0.07-0.59-0.2-0.82
			c-0.14-0.23-0.34-0.42-0.61-0.58c-0.27-0.16-0.62-0.29-1.04-0.39l-1.02-0.25c-0.26-0.07-0.47-0.14-0.63-0.23s-0.28-0.19-0.36-0.3
			c-0.08-0.11-0.12-0.25-0.12-0.39v-0.01c0-0.2,0.06-0.37,0.18-0.52c0.12-0.15,0.28-0.26,0.49-0.35c0.2-0.08,0.44-0.13,0.7-0.13
			c0.4,0,0.73,0.08,0.98,0.25s0.41,0.38,0.48,0.64h1.05c-0.05-0.36-0.18-0.67-0.4-0.94c-0.22-0.27-0.51-0.47-0.87-0.62
			s-0.77-0.22-1.23-0.22c-0.47,0-0.89,0.08-1.26,0.25c-0.37,0.17-0.67,0.4-0.88,0.69c-0.21,0.29-0.32,0.62-0.32,0.99v0.01
			c0,0.32,0.06,0.59,0.19,0.82c0.13,0.23,0.32,0.43,0.59,0.58c0.27,0.16,0.61,0.29,1.02,0.38l1.03,0.25c0.41,0.1,0.7,0.23,0.88,0.38
			c0.18,0.16,0.27,0.35,0.27,0.57v0.01c0,0.2-0.07,0.38-0.2,0.53s-0.31,0.27-0.54,0.36c-0.23,0.09-0.49,0.13-0.79,0.13
			c-0.42,0-0.76-0.08-1.03-0.25s-0.44-0.39-0.53-0.66h-1.09c0.04,0.36,0.18,0.68,0.4,0.95s0.53,0.48,0.91,0.63
			C150.8,150.82,151.23,150.89,151.73,150.89z"/>
		<path style="clip-path:url(#SVGID_00000119796397060567579130000013781874228035820710_);" d="M158.74,150.89
			c0.39,0,0.74-0.05,1.05-0.15c0.31-0.1,0.58-0.24,0.81-0.41c0.23-0.17,0.42-0.36,0.56-0.57c0.15-0.21,0.25-0.43,0.3-0.65l0.01-0.05
			h-1.07l-0.02,0.06c-0.06,0.13-0.16,0.26-0.3,0.39s-0.33,0.23-0.55,0.31s-0.48,0.12-0.78,0.12c-0.4,0-0.75-0.09-1.04-0.27
			c-0.29-0.18-0.52-0.43-0.68-0.77c-0.16-0.33-0.24-0.74-0.24-1.21v-0.42c0-0.5,0.08-0.91,0.25-1.25c0.16-0.34,0.39-0.6,0.67-0.77
			c0.28-0.17,0.6-0.26,0.96-0.26s0.67,0.08,0.95,0.25s0.49,0.42,0.64,0.75c0.16,0.34,0.23,0.76,0.23,1.28v0.42l0.53-0.78h-4.76v0.85
			h5.31v-0.42c0-0.66-0.12-1.24-0.35-1.74s-0.56-0.89-1-1.16c-0.43-0.28-0.95-0.42-1.55-0.42c-0.6,0-1.12,0.15-1.57,0.44
			c-0.45,0.29-0.79,0.69-1.04,1.21c-0.24,0.52-0.37,1.12-0.37,1.8v0.01c0,0.69,0.12,1.29,0.37,1.8c0.24,0.51,0.59,0.9,1.04,1.18
			C157.57,150.75,158.11,150.89,158.74,150.89z"/>
		<path style="clip-path:url(#SVGID_00000119796397060567579130000013781874228035820710_);" d="M165.93,149.95
			c-0.41,0-0.75-0.1-1.04-0.3s-0.51-0.48-0.67-0.85c-0.16-0.37-0.23-0.81-0.23-1.32v-0.01c0-0.52,0.08-0.96,0.23-1.33
			c0.15-0.37,0.38-0.65,0.67-0.85c0.29-0.2,0.64-0.3,1.04-0.3s0.75,0.1,1.04,0.3c0.29,0.2,0.52,0.49,0.68,0.86
			c0.16,0.37,0.24,0.81,0.24,1.32v0.01c0,0.5-0.08,0.94-0.24,1.31c-0.16,0.37-0.38,0.66-0.68,0.86
			C166.67,149.85,166.32,149.95,165.93,149.95z M167.84,152.99h1.07v-8.83h-1.07v1.11h-0.07c-0.14-0.25-0.32-0.47-0.53-0.65
			c-0.22-0.18-0.45-0.33-0.72-0.42c-0.26-0.1-0.55-0.15-0.84-0.15c-0.56,0-1.05,0.14-1.47,0.42c-0.42,0.28-0.74,0.68-0.97,1.19
			c-0.23,0.51-0.34,1.11-0.34,1.81v0.01c0,0.69,0.11,1.29,0.34,1.8c0.23,0.51,0.55,0.91,0.97,1.19c0.42,0.28,0.91,0.42,1.47,0.42
			c0.32,0,0.61-0.04,0.88-0.13c0.27-0.09,0.5-0.21,0.71-0.38c0.2-0.17,0.37-0.37,0.49-0.6h0.1V152.99z"/>
		<path style="clip-path:url(#SVGID_00000119796397060567579130000013781874228035820710_);" d="M173.11,150.89
			c0.32,0,0.61-0.04,0.87-0.13c0.26-0.09,0.48-0.21,0.66-0.38c0.18-0.17,0.33-0.37,0.44-0.6h0.1v0.99h1.07v-6.62h-1.07v3.92
			c0,0.29-0.04,0.55-0.11,0.78s-0.19,0.43-0.34,0.59c-0.15,0.16-0.34,0.29-0.56,0.37c-0.22,0.09-0.48,0.13-0.77,0.13
			c-0.53,0-0.91-0.15-1.14-0.44c-0.23-0.29-0.35-0.73-0.35-1.33v-4.03h-1.07v4.29c0,0.52,0.08,0.96,0.25,1.33
			c0.17,0.37,0.42,0.64,0.76,0.84S172.61,150.89,173.11,150.89z"/>
		<path style="clip-path:url(#SVGID_00000119796397060567579130000013781874228035820710_);" d="M180.93,150.89
			c0.39,0,0.74-0.05,1.05-0.15c0.31-0.1,0.58-0.24,0.81-0.41c0.23-0.17,0.42-0.36,0.56-0.57c0.15-0.21,0.25-0.43,0.3-0.65l0.01-0.05
			h-1.07l-0.02,0.06c-0.06,0.13-0.16,0.26-0.3,0.39s-0.33,0.23-0.55,0.31s-0.48,0.12-0.78,0.12c-0.4,0-0.75-0.09-1.04-0.27
			c-0.29-0.18-0.52-0.43-0.68-0.77c-0.16-0.33-0.24-0.74-0.24-1.21v-0.42c0-0.5,0.08-0.91,0.25-1.25c0.16-0.34,0.39-0.6,0.67-0.77
			c0.28-0.17,0.6-0.26,0.96-0.26s0.67,0.08,0.95,0.25s0.49,0.42,0.64,0.75c0.16,0.34,0.23,0.76,0.23,1.28v0.42l0.53-0.78h-4.76v0.85
			h5.31v-0.42c0-0.66-0.12-1.24-0.35-1.74s-0.56-0.89-1-1.16c-0.43-0.28-0.95-0.42-1.55-0.42c-0.6,0-1.12,0.15-1.57,0.44
			c-0.45,0.29-0.79,0.69-1.04,1.21c-0.24,0.52-0.37,1.12-0.37,1.8v0.01c0,0.69,0.12,1.29,0.37,1.8c0.24,0.51,0.59,0.9,1.04,1.18
			C179.76,150.75,180.3,150.89,180.93,150.89z"/>
		<path style="clip-path:url(#SVGID_00000119796397060567579130000013781874228035820710_);" d="M185.42,150.78h1.07v-3.92
			c0-0.39,0.07-0.72,0.21-1c0.14-0.28,0.34-0.49,0.6-0.64c0.26-0.15,0.56-0.23,0.92-0.23c0.53,0,0.92,0.14,1.17,0.43
			c0.25,0.29,0.38,0.73,0.38,1.33v4.03h1.07v-4.29c0-0.79-0.2-1.39-0.6-1.82c-0.4-0.42-0.97-0.64-1.72-0.64
			c-0.49,0-0.89,0.1-1.2,0.29s-0.56,0.47-0.72,0.82h-0.1v-1h-1.07V150.78z"/>
		<path style="clip-path:url(#SVGID_00000119796397060567579130000013781874228035820710_);" d="M195.11,150.83
			c0.11,0,0.21-0.01,0.31-0.02c0.1-0.01,0.2-0.03,0.31-0.04v-0.91c-0.1,0.01-0.18,0.01-0.25,0.02c-0.07,0-0.15,0.01-0.24,0.01
			c-0.34,0-0.59-0.08-0.74-0.25c-0.15-0.17-0.22-0.45-0.22-0.84v-3.75h1.45v-0.88h-1.45v-1.71h-1.11v1.71h-1.04v0.88h1.04v4.02
			c0,0.63,0.15,1.08,0.46,1.36C193.94,150.69,194.43,150.83,195.11,150.83z"/>
		<path style="clip-path:url(#SVGID_00000119796397060567579130000013781874228035820710_);" d="M197.89,142.88
			c0.2,0,0.38-0.07,0.52-0.22c0.14-0.15,0.21-0.32,0.21-0.52c0-0.2-0.07-0.38-0.21-0.52c-0.14-0.14-0.32-0.21-0.52-0.21
			c-0.2,0-0.37,0.07-0.52,0.21c-0.15,0.14-0.22,0.32-0.22,0.52c0,0.2,0.07,0.37,0.22,0.52S197.69,142.88,197.89,142.88z
			 M197.35,150.78h1.07v-6.62h-1.07V150.78z"/>
		<path style="clip-path:url(#SVGID_00000119796397060567579130000013781874228035820710_);" d="M202.26,150.89
			c0.3,0,0.57-0.04,0.82-0.13s0.47-0.21,0.67-0.37s0.37-0.36,0.51-0.6h0.1v0.98h1.07v-4.53c0-0.46-0.1-0.85-0.29-1.18
			s-0.48-0.58-0.85-0.76s-0.83-0.26-1.37-0.26c-0.47,0-0.89,0.07-1.26,0.22c-0.37,0.15-0.67,0.35-0.9,0.61
			c-0.23,0.26-0.38,0.56-0.43,0.91l-0.01,0.04h1.07l0.01-0.02c0.09-0.26,0.26-0.46,0.51-0.6c0.25-0.14,0.58-0.21,0.98-0.21
			c0.5,0,0.87,0.11,1.11,0.32c0.25,0.21,0.37,0.53,0.37,0.94v2.06c0,0.32-0.08,0.6-0.24,0.85c-0.16,0.25-0.38,0.45-0.67,0.59
			c-0.28,0.15-0.61,0.22-0.97,0.22c-0.38,0-0.7-0.09-0.96-0.28s-0.38-0.45-0.38-0.78v-0.01c0-0.33,0.12-0.58,0.35-0.76
			c0.23-0.18,0.6-0.28,1.1-0.31l2.3-0.15v-0.85l-2.43,0.15c-0.51,0.03-0.95,0.12-1.31,0.28c-0.36,0.16-0.63,0.38-0.82,0.66
			c-0.19,0.28-0.28,0.62-0.28,1.01v0.01c0,0.4,0.1,0.75,0.29,1.04s0.46,0.52,0.79,0.68C201.46,150.81,201.84,150.89,202.26,150.89z"
			/>
		
			<rect x="207.44" y="141.53" style="clip-path:url(#SVGID_00000119796397060567579130000013781874228035820710_);" width="1.07" height="9.25"/>
	</g>
	<g>
		<path class="st4" d="M97.25,174.89h1.11v-8.86h-1.11V174.89z M97.8,171.73h2.79c0.56,0,1.05-0.12,1.47-0.36
			c0.43-0.24,0.76-0.58,1-1.01s0.37-0.93,0.37-1.49v-0.01c0-0.56-0.12-1.05-0.37-1.48c-0.24-0.43-0.58-0.76-1-1
			c-0.43-0.24-0.92-0.36-1.47-0.36H97.8v0.98h2.51c0.63,0,1.13,0.16,1.47,0.49c0.35,0.33,0.52,0.78,0.52,1.37v0.01
			c0,0.58-0.17,1.04-0.52,1.37s-0.84,0.49-1.47,0.49H97.8V171.73z"/>
		<path class="st4" d="M105.11,174.89h1.07v-4.1c0-0.32,0.07-0.61,0.22-0.85c0.15-0.24,0.36-0.43,0.62-0.57s0.56-0.2,0.9-0.2
			c0.12,0,0.23,0.01,0.33,0.02c0.1,0.01,0.21,0.03,0.32,0.05v-1.04c-0.05-0.01-0.13-0.02-0.23-0.03s-0.2-0.02-0.3-0.02
			c-0.45,0-0.82,0.1-1.12,0.29c-0.3,0.19-0.52,0.46-0.65,0.81h-0.1v-0.98h-1.07V174.89z"/>
		<path class="st4" d="M112.42,175.01c0.39,0,0.74-0.05,1.05-0.15c0.31-0.1,0.58-0.24,0.81-0.41c0.23-0.17,0.42-0.36,0.56-0.57
			c0.15-0.21,0.25-0.43,0.3-0.65l0.01-0.05h-1.07l-0.02,0.06c-0.06,0.13-0.16,0.26-0.3,0.39s-0.33,0.23-0.55,0.31
			s-0.48,0.12-0.78,0.12c-0.4,0-0.75-0.09-1.04-0.27c-0.29-0.18-0.52-0.43-0.68-0.77c-0.16-0.33-0.24-0.74-0.24-1.21v-0.42
			c0-0.5,0.08-0.91,0.25-1.25c0.16-0.34,0.39-0.6,0.67-0.77c0.28-0.17,0.6-0.26,0.96-0.26s0.67,0.08,0.95,0.25s0.49,0.42,0.64,0.75
			c0.16,0.34,0.23,0.76,0.23,1.28v0.42l0.53-0.78h-4.76v0.85h5.31v-0.42c0-0.66-0.12-1.24-0.35-1.74s-0.56-0.89-1-1.16
			c-0.43-0.28-0.95-0.42-1.55-0.42c-0.6,0-1.12,0.15-1.57,0.44c-0.45,0.29-0.79,0.69-1.04,1.21c-0.24,0.52-0.37,1.12-0.37,1.8v0.01
			c0,0.69,0.12,1.29,0.37,1.8c0.24,0.51,0.59,0.9,1.04,1.18C111.25,174.87,111.79,175.01,112.42,175.01z"/>
		<path class="st4" d="M119.18,175.01c0.5,0,0.96-0.08,1.35-0.25c0.4-0.17,0.72-0.4,0.95-0.7c0.23-0.3,0.35-0.65,0.35-1.04V173
			c0-0.32-0.07-0.59-0.2-0.82c-0.14-0.23-0.34-0.42-0.61-0.58c-0.27-0.16-0.62-0.29-1.04-0.39l-1.02-0.25
			c-0.26-0.07-0.47-0.14-0.63-0.23s-0.28-0.19-0.36-0.3c-0.08-0.11-0.12-0.25-0.12-0.39v-0.01c0-0.2,0.06-0.37,0.18-0.52
			c0.12-0.15,0.28-0.26,0.49-0.35c0.2-0.08,0.44-0.13,0.7-0.13c0.4,0,0.73,0.08,0.98,0.25s0.41,0.38,0.48,0.64h1.05
			c-0.05-0.36-0.18-0.67-0.4-0.94c-0.22-0.27-0.51-0.47-0.87-0.62s-0.77-0.22-1.23-0.22c-0.47,0-0.89,0.08-1.26,0.25
			c-0.37,0.17-0.67,0.4-0.88,0.69c-0.21,0.29-0.32,0.62-0.32,0.99v0.01c0,0.32,0.06,0.59,0.19,0.82c0.13,0.23,0.32,0.43,0.59,0.58
			c0.27,0.16,0.61,0.29,1.02,0.38l1.03,0.25c0.41,0.1,0.7,0.23,0.88,0.38c0.18,0.16,0.27,0.35,0.27,0.57v0.01
			c0,0.2-0.07,0.38-0.2,0.53s-0.31,0.27-0.54,0.36c-0.23,0.09-0.49,0.13-0.79,0.13c-0.42,0-0.76-0.08-1.03-0.25
			s-0.44-0.39-0.53-0.66h-1.09c0.04,0.36,0.18,0.68,0.4,0.95s0.53,0.48,0.91,0.63C118.25,174.93,118.68,175.01,119.18,175.01z"/>
		<path class="st4" d="M126.19,175.01c0.39,0,0.74-0.05,1.05-0.15c0.31-0.1,0.58-0.24,0.81-0.41c0.23-0.17,0.42-0.36,0.56-0.57
			c0.15-0.21,0.25-0.43,0.3-0.65l0.01-0.05h-1.07l-0.02,0.06c-0.06,0.13-0.16,0.26-0.3,0.39s-0.33,0.23-0.55,0.31
			s-0.48,0.12-0.78,0.12c-0.4,0-0.75-0.09-1.04-0.27c-0.29-0.18-0.52-0.43-0.68-0.77c-0.16-0.33-0.24-0.74-0.24-1.21v-0.42
			c0-0.5,0.08-0.91,0.25-1.25c0.16-0.34,0.39-0.6,0.67-0.77c0.28-0.17,0.6-0.26,0.96-0.26s0.67,0.08,0.95,0.25s0.49,0.42,0.64,0.75
			c0.16,0.34,0.23,0.76,0.23,1.28v0.42l0.53-0.78h-4.76v0.85h5.31v-0.42c0-0.66-0.12-1.24-0.35-1.74s-0.56-0.89-1-1.16
			c-0.43-0.28-0.95-0.42-1.55-0.42c-0.6,0-1.12,0.15-1.57,0.44c-0.45,0.29-0.79,0.69-1.04,1.21c-0.24,0.52-0.37,1.12-0.37,1.8v0.01
			c0,0.69,0.12,1.29,0.37,1.8c0.24,0.51,0.59,0.9,1.04,1.18C125.02,174.87,125.56,175.01,126.19,175.01z"/>
		<path class="st4" d="M133.03,174.94c0.11,0,0.21-0.01,0.31-0.02c0.1-0.01,0.2-0.03,0.31-0.04v-0.91c-0.1,0.01-0.18,0.01-0.25,0.02
			c-0.07,0-0.15,0.01-0.24,0.01c-0.34,0-0.59-0.08-0.74-0.25c-0.15-0.17-0.22-0.45-0.22-0.84v-3.75h1.45v-0.88h-1.45v-1.71h-1.11
			v1.71h-1.04v0.88h1.04v4.02c0,0.63,0.15,1.08,0.46,1.36C131.85,174.8,132.35,174.94,133.03,174.94z"/>
		<path class="st4" d="M136.12,170.2c0.22,0,0.41-0.08,0.57-0.24c0.16-0.16,0.23-0.34,0.23-0.56c0-0.22-0.08-0.41-0.23-0.57
			c-0.16-0.16-0.34-0.23-0.57-0.23c-0.22,0-0.4,0.08-0.56,0.23c-0.16,0.16-0.24,0.34-0.24,0.57c0,0.22,0.08,0.4,0.24,0.56
			C135.71,170.12,135.9,170.2,136.12,170.2z M136.12,174.95c0.22,0,0.41-0.08,0.57-0.24c0.16-0.16,0.23-0.35,0.23-0.56
			c0-0.22-0.08-0.41-0.23-0.57c-0.16-0.16-0.34-0.23-0.57-0.23c-0.22,0-0.4,0.08-0.56,0.23c-0.16,0.16-0.24,0.34-0.24,0.57
			c0,0.22,0.08,0.4,0.24,0.56C135.71,174.87,135.9,174.95,136.12,174.95z"/>
	</g>
	<g>
		<defs>
			<rect id="SVGID_00000147216144354671507410000008253688563940924301_" x="143.22" y="160.21" width="100.64" height="19.92"/>
		</defs>
		<clipPath id="SVGID_00000117635978732963432800000018389743097649269134_">
			<use xlink:href="#SVGID_00000147216144354671507410000008253688563940924301_"  style="overflow:visible;"/>
		</clipPath>
		<path style="clip-path:url(#SVGID_00000117635978732963432800000018389743097649269134_);fill:#FFFFFF;" d="M143.74,177.51v-14.68
			c0-0.28,0.05-0.55,0.16-0.8c0.11-0.26,0.26-0.48,0.45-0.68c0.2-0.2,0.42-0.35,0.68-0.45c0.26-0.11,0.52-0.16,0.8-0.16h95.4
			c0.28,0,0.55,0.05,0.8,0.16c0.26,0.11,0.48,0.26,0.68,0.45s0.35,0.42,0.45,0.68c0.11,0.26,0.16,0.52,0.16,0.8v14.68
			c0,0.28-0.05,0.55-0.16,0.8c-0.11,0.26-0.26,0.48-0.45,0.68c-0.2,0.2-0.42,0.35-0.68,0.45c-0.26,0.11-0.52,0.16-0.8,0.16h-95.4
			c-0.28,0-0.55-0.05-0.8-0.16c-0.26-0.11-0.48-0.26-0.68-0.45c-0.2-0.2-0.35-0.42-0.45-0.68
			C143.79,178.06,143.74,177.79,143.74,177.51z"/>
		
			<path style="clip-path:url(#SVGID_00000117635978732963432800000018389743097649269134_);fill:none;stroke:#767676;stroke-width:1.0484;" d="
			M143.74,177.51v-14.68c0-0.28,0.05-0.55,0.16-0.8c0.11-0.26,0.26-0.48,0.45-0.68c0.2-0.2,0.42-0.35,0.68-0.45
			c0.26-0.11,0.52-0.16,0.8-0.16h95.4c0.28,0,0.55,0.05,0.8,0.16c0.26,0.11,0.48,0.26,0.68,0.45s0.35,0.42,0.45,0.68
			c0.11,0.26,0.16,0.52,0.16,0.8v14.68c0,0.28-0.05,0.55-0.16,0.8c-0.11,0.26-0.26,0.48-0.45,0.68c-0.2,0.2-0.42,0.35-0.68,0.45
			c-0.26,0.11-0.52,0.16-0.8,0.16h-95.4c-0.28,0-0.55-0.05-0.8-0.16c-0.26-0.11-0.48-0.26-0.68-0.45c-0.2-0.2-0.35-0.42-0.45-0.68
			C143.79,178.06,143.74,177.79,143.74,177.51z"/>
		
			<polyline style="clip-path:url(#SVGID_00000117635978732963432800000018389743097649269134_);fill:none;stroke:#000000;stroke-width:2.0967;" points="
			227.89,167.55 232.08,171.74 236.28,167.55 		"/>
	</g>
	<g>
		<defs>
			<rect id="SVGID_00000156546902471347900720000004480053952768503947_" x="148.46" y="161.26" width="61.85" height="17.82"/>
		</defs>
		<clipPath id="SVGID_00000109008131012290860960000008921787340290075305_">
			<use xlink:href="#SVGID_00000156546902471347900720000004480053952768503947_"  style="overflow:visible;"/>
		</clipPath>
		<path style="clip-path:url(#SVGID_00000109008131012290860960000008921787340290075305_);" d="M149.45,174.89h1.07v-4.1
			c0-0.31,0.07-0.59,0.2-0.85c0.13-0.26,0.32-0.46,0.55-0.61c0.23-0.15,0.49-0.23,0.78-0.23c0.28,0,0.52,0.05,0.73,0.16
			c0.21,0.11,0.37,0.26,0.48,0.45s0.17,0.42,0.17,0.68v4.5h1.07v-4.26c0-0.28,0.06-0.54,0.19-0.77s0.31-0.42,0.53-0.56
			c0.23-0.14,0.5-0.21,0.8-0.21c0.31,0,0.57,0.05,0.77,0.16c0.2,0.11,0.36,0.27,0.46,0.49c0.1,0.21,0.15,0.49,0.15,0.81v4.33h1.07
			v-4.58c0-0.46-0.08-0.85-0.25-1.18c-0.16-0.32-0.4-0.57-0.72-0.73c-0.31-0.17-0.7-0.25-1.15-0.25c-0.3,0-0.59,0.05-0.85,0.14
			c-0.26,0.1-0.5,0.23-0.7,0.41c-0.2,0.17-0.36,0.38-0.48,0.61h-0.1c-0.1-0.23-0.24-0.43-0.41-0.61c-0.17-0.17-0.38-0.31-0.61-0.41
			c-0.24-0.1-0.51-0.15-0.8-0.15c-0.43,0-0.8,0.1-1.11,0.29c-0.31,0.2-0.53,0.47-0.68,0.83h-0.1v-1.01h-1.07V174.89z"/>
		<path style="clip-path:url(#SVGID_00000109008131012290860960000008921787340290075305_);" d="M162.22,175.01
			c0.3,0,0.57-0.04,0.82-0.13s0.47-0.21,0.67-0.37s0.37-0.36,0.51-0.6h0.1v0.98h1.07v-4.53c0-0.46-0.1-0.85-0.29-1.18
			s-0.48-0.58-0.85-0.76s-0.83-0.26-1.37-0.26c-0.47,0-0.89,0.07-1.26,0.22c-0.37,0.15-0.67,0.35-0.9,0.61
			c-0.23,0.26-0.38,0.56-0.43,0.91l-0.01,0.04h1.07l0.01-0.02c0.09-0.26,0.26-0.46,0.51-0.6c0.25-0.14,0.58-0.21,0.98-0.21
			c0.5,0,0.87,0.11,1.11,0.32c0.25,0.21,0.37,0.53,0.37,0.94v2.06c0,0.32-0.08,0.6-0.24,0.85c-0.16,0.25-0.38,0.45-0.67,0.59
			c-0.28,0.15-0.61,0.22-0.97,0.22c-0.38,0-0.7-0.09-0.96-0.28s-0.38-0.45-0.38-0.78V173c0-0.33,0.12-0.58,0.35-0.76
			c0.23-0.18,0.6-0.28,1.1-0.31l2.3-0.15v-0.85l-2.43,0.15c-0.51,0.03-0.95,0.12-1.31,0.28c-0.36,0.16-0.63,0.38-0.82,0.66
			c-0.19,0.28-0.28,0.62-0.28,1.01v0.01c0,0.4,0.1,0.75,0.29,1.04s0.46,0.52,0.79,0.68C161.42,174.93,161.8,175.01,162.22,175.01z"
			/>
		<path style="clip-path:url(#SVGID_00000109008131012290860960000008921787340290075305_);" d="M170.02,173.6
			c-0.41,0-0.76-0.1-1.04-0.29s-0.5-0.45-0.65-0.79c-0.15-0.34-0.22-0.72-0.22-1.16v-0.01c0-0.44,0.07-0.83,0.22-1.17
			s0.37-0.61,0.65-0.8c0.28-0.19,0.63-0.29,1.04-0.29c0.41,0,0.76,0.1,1.05,0.29c0.29,0.19,0.52,0.46,0.68,0.8s0.24,0.73,0.24,1.17
			v0.01c0,0.44-0.08,0.83-0.24,1.16c-0.16,0.34-0.38,0.6-0.68,0.79C170.78,173.5,170.43,173.6,170.02,173.6z M170.07,177.22
			c0.6,0,1.12-0.1,1.57-0.3s0.78-0.48,1.02-0.84c0.24-0.36,0.36-0.79,0.36-1.28v-6.53h-1.07v1.09h-0.07
			c-0.14-0.25-0.3-0.46-0.51-0.65c-0.2-0.18-0.44-0.32-0.7-0.42c-0.26-0.1-0.55-0.15-0.86-0.15c-0.58,0-1.07,0.14-1.49,0.41
			c-0.42,0.28-0.74,0.66-0.97,1.14c-0.23,0.48-0.34,1.03-0.34,1.65v0.01c0,0.62,0.11,1.17,0.34,1.65c0.23,0.48,0.55,0.85,0.96,1.13
			s0.91,0.41,1.48,0.41c0.3,0,0.59-0.04,0.85-0.13c0.26-0.09,0.5-0.22,0.71-0.39s0.38-0.38,0.52-0.62h0.1v1.34
			c0,0.49-0.17,0.87-0.5,1.13s-0.8,0.4-1.39,0.4c-0.48,0-0.86-0.08-1.14-0.24c-0.29-0.16-0.46-0.37-0.52-0.62l-0.01-0.01h-1.11
			l-0.01,0.01c0.06,0.36,0.2,0.68,0.44,0.95c0.24,0.27,0.55,0.48,0.95,0.63C169.07,177.15,169.54,177.22,170.07,177.22z"/>
		<path style="clip-path:url(#SVGID_00000109008131012290860960000008921787340290075305_);" d="M175.01,174.89h1.07v-4.1
			c0-0.31,0.07-0.59,0.2-0.85c0.13-0.26,0.32-0.46,0.55-0.61c0.23-0.15,0.49-0.23,0.78-0.23c0.28,0,0.52,0.05,0.73,0.16
			c0.21,0.11,0.37,0.26,0.48,0.45s0.17,0.42,0.17,0.68v4.5h1.07v-4.26c0-0.28,0.06-0.54,0.19-0.77s0.31-0.42,0.53-0.56
			c0.23-0.14,0.5-0.21,0.8-0.21c0.31,0,0.57,0.05,0.77,0.16c0.2,0.11,0.36,0.27,0.46,0.49c0.1,0.21,0.15,0.49,0.15,0.81v4.33h1.07
			v-4.58c0-0.46-0.08-0.85-0.25-1.18c-0.16-0.32-0.4-0.57-0.72-0.73c-0.31-0.17-0.7-0.25-1.15-0.25c-0.3,0-0.59,0.05-0.85,0.14
			c-0.26,0.1-0.5,0.23-0.7,0.41c-0.2,0.17-0.36,0.38-0.48,0.61h-0.1c-0.1-0.23-0.24-0.43-0.41-0.61c-0.17-0.17-0.38-0.31-0.61-0.41
			c-0.24-0.1-0.51-0.15-0.8-0.15c-0.43,0-0.8,0.1-1.11,0.29c-0.31,0.2-0.53,0.47-0.68,0.83h-0.1v-1.01h-1.07V174.89z"/>
		<path style="clip-path:url(#SVGID_00000109008131012290860960000008921787340290075305_);" d="M187.77,175.01
			c0.3,0,0.57-0.04,0.82-0.13s0.47-0.21,0.67-0.37s0.37-0.36,0.51-0.6h0.1v0.98h1.07v-4.53c0-0.46-0.1-0.85-0.29-1.18
			s-0.48-0.58-0.85-0.76s-0.83-0.26-1.37-0.26c-0.47,0-0.89,0.07-1.26,0.22c-0.37,0.15-0.67,0.35-0.9,0.61
			c-0.23,0.26-0.38,0.56-0.43,0.91l-0.01,0.04h1.07l0.01-0.02c0.09-0.26,0.26-0.46,0.51-0.6c0.25-0.14,0.58-0.21,0.98-0.21
			c0.5,0,0.87,0.11,1.11,0.32c0.25,0.21,0.37,0.53,0.37,0.94v2.06c0,0.32-0.08,0.6-0.24,0.85c-0.16,0.25-0.38,0.45-0.67,0.59
			c-0.28,0.15-0.61,0.22-0.97,0.22c-0.38,0-0.7-0.09-0.96-0.28s-0.38-0.45-0.38-0.78V173c0-0.33,0.12-0.58,0.35-0.76
			c0.23-0.18,0.6-0.28,1.1-0.31l2.3-0.15v-0.85l-2.43,0.15c-0.51,0.03-0.95,0.12-1.31,0.28c-0.36,0.16-0.63,0.38-0.82,0.66
			c-0.19,0.28-0.28,0.62-0.28,1.01v0.01c0,0.4,0.1,0.75,0.29,1.04s0.46,0.52,0.79,0.68C186.98,174.93,187.35,175.01,187.77,175.01z"
			/>
	</g>
	<g>
		<path class="st4" d="M97.67,194.45l0.17-0.88h-6.82l-0.18,0.88h1.85h0.14h2.75h0.14H97.67z M97.1,197.57l0.17-0.88h-2.03h-0.13
			h-2.76h-0.13h-1.78l-0.17,0.88H97.1z M94.98,200.05l1.82-8.86h-0.88l-0.57,2.75l-0.02,0.1l-0.62,3.03l-0.02,0.1l-0.6,2.88H94.98z
			 M92.09,200.05l0.59-2.88l0.02-0.1l0.62-3.03l0.02-0.1l0.57-2.75h-0.87l-1.81,8.86H92.09z"/>
		<path class="st4" d="M104.82,200.17c0.5,0,0.96-0.08,1.35-0.25c0.4-0.17,0.72-0.4,0.95-0.7c0.23-0.3,0.35-0.65,0.35-1.04v-0.01
			c0-0.32-0.07-0.59-0.2-0.82c-0.14-0.23-0.34-0.42-0.61-0.58c-0.27-0.16-0.62-0.29-1.04-0.39l-1.02-0.25
			c-0.26-0.07-0.47-0.14-0.63-0.23s-0.28-0.19-0.36-0.3c-0.08-0.11-0.12-0.25-0.12-0.39v-0.01c0-0.2,0.06-0.37,0.18-0.52
			c0.12-0.15,0.28-0.26,0.49-0.35c0.2-0.08,0.44-0.13,0.7-0.13c0.4,0,0.73,0.08,0.98,0.25s0.41,0.38,0.48,0.64h1.05
			c-0.05-0.36-0.18-0.67-0.4-0.94c-0.22-0.27-0.51-0.47-0.87-0.62s-0.77-0.22-1.23-0.22c-0.47,0-0.89,0.08-1.26,0.25
			c-0.37,0.17-0.67,0.4-0.88,0.69c-0.21,0.29-0.32,0.62-0.32,0.99v0.01c0,0.32,0.06,0.59,0.19,0.82c0.13,0.23,0.32,0.43,0.59,0.58
			c0.27,0.16,0.61,0.29,1.02,0.38l1.03,0.25c0.41,0.1,0.7,0.23,0.88,0.38c0.18,0.16,0.27,0.35,0.27,0.57v0.01
			c0,0.2-0.07,0.38-0.2,0.53s-0.31,0.27-0.54,0.36c-0.23,0.09-0.49,0.13-0.79,0.13c-0.42,0-0.76-0.08-1.03-0.25
			s-0.44-0.39-0.53-0.66h-1.09c0.04,0.36,0.18,0.68,0.4,0.95s0.53,0.48,0.91,0.63C103.9,200.09,104.33,200.17,104.82,200.17z"/>
		<path class="st4" d="M111.43,200.1c0.11,0,0.21-0.01,0.31-0.02c0.1-0.01,0.2-0.03,0.31-0.04v-0.91c-0.1,0.01-0.18,0.01-0.25,0.02
			c-0.07,0-0.15,0.01-0.24,0.01c-0.34,0-0.59-0.08-0.74-0.25c-0.15-0.17-0.22-0.45-0.22-0.84v-3.75h1.45v-0.88h-1.45v-1.71h-1.11
			v1.71h-1.04v0.88h1.04v4.02c0,0.63,0.15,1.08,0.46,1.36C110.25,199.96,110.75,200.1,111.43,200.1z"/>
		<path class="st4" d="M116.27,199.22c-0.42,0-0.77-0.1-1.06-0.29c-0.29-0.2-0.51-0.48-0.67-0.85c-0.15-0.37-0.23-0.81-0.23-1.33
			v-0.01c0-0.52,0.08-0.97,0.23-1.34c0.15-0.37,0.38-0.65,0.67-0.84c0.29-0.19,0.65-0.29,1.06-0.29c0.42,0,0.77,0.1,1.06,0.29
			c0.29,0.19,0.51,0.48,0.67,0.84c0.15,0.37,0.23,0.81,0.23,1.34v0.01c0,0.52-0.08,0.96-0.23,1.33c-0.15,0.37-0.38,0.65-0.67,0.85
			C117.05,199.12,116.69,199.22,116.27,199.22z M116.27,200.17c0.63,0,1.17-0.14,1.63-0.41c0.45-0.28,0.81-0.67,1.05-1.18
			s0.37-1.12,0.37-1.82v-0.01c0-0.71-0.12-1.32-0.37-1.83s-0.6-0.91-1.05-1.18c-0.45-0.27-1-0.41-1.63-0.41
			c-0.63,0-1.17,0.14-1.62,0.41c-0.46,0.27-0.81,0.67-1.06,1.18s-0.37,1.12-0.37,1.83v0.01c0,0.7,0.12,1.31,0.37,1.82
			s0.6,0.91,1.06,1.18S115.65,200.17,116.27,200.17z"/>
		<path class="st4" d="M123.97,199.22c-0.4,0-0.75-0.1-1.04-0.3c-0.29-0.2-0.51-0.49-0.67-0.86c-0.16-0.37-0.23-0.81-0.23-1.32
			v-0.01c0-0.51,0.08-0.95,0.23-1.32c0.16-0.37,0.38-0.65,0.67-0.85c0.29-0.2,0.64-0.3,1.04-0.3c0.41,0,0.75,0.1,1.04,0.3
			c0.29,0.2,0.51,0.48,0.66,0.85c0.15,0.37,0.23,0.81,0.23,1.33v0.01c0,0.51-0.08,0.95-0.23,1.32s-0.37,0.66-0.66,0.85
			C124.72,199.12,124.38,199.22,123.97,199.22z M120.99,202.26h1.07v-3.26h0.1c0.12,0.24,0.29,0.44,0.49,0.61s0.44,0.31,0.71,0.4
			c0.27,0.1,0.55,0.14,0.86,0.14c0.56,0,1.05-0.14,1.47-0.42c0.42-0.28,0.74-0.68,0.97-1.19c0.23-0.51,0.34-1.11,0.34-1.81v-0.01
			c0-0.69-0.11-1.29-0.34-1.8c-0.23-0.51-0.55-0.91-0.97-1.19s-0.9-0.43-1.47-0.43c-0.31,0-0.59,0.05-0.85,0.14s-0.5,0.23-0.7,0.4
			c-0.2,0.17-0.37,0.38-0.51,0.63h-0.1v-1.06h-1.07V202.26z"/>
		<path class="st4" d="M130.94,200.17c0.5,0,0.96-0.08,1.35-0.25c0.4-0.17,0.72-0.4,0.95-0.7c0.23-0.3,0.35-0.65,0.35-1.04v-0.01
			c0-0.32-0.07-0.59-0.2-0.82c-0.14-0.23-0.34-0.42-0.61-0.58c-0.27-0.16-0.62-0.29-1.04-0.39l-1.02-0.25
			c-0.26-0.07-0.47-0.14-0.63-0.23s-0.28-0.19-0.36-0.3c-0.08-0.11-0.12-0.25-0.12-0.39v-0.01c0-0.2,0.06-0.37,0.18-0.52
			c0.12-0.15,0.28-0.26,0.49-0.35c0.2-0.08,0.44-0.13,0.7-0.13c0.4,0,0.73,0.08,0.98,0.25s0.41,0.38,0.48,0.64h1.05
			c-0.05-0.36-0.18-0.67-0.4-0.94c-0.22-0.27-0.51-0.47-0.87-0.62s-0.77-0.22-1.23-0.22c-0.47,0-0.89,0.08-1.26,0.25
			c-0.37,0.17-0.67,0.4-0.88,0.69c-0.21,0.29-0.32,0.62-0.32,0.99v0.01c0,0.32,0.06,0.59,0.19,0.82c0.13,0.23,0.32,0.43,0.59,0.58
			c0.27,0.16,0.61,0.29,1.02,0.38l1.03,0.25c0.41,0.1,0.7,0.23,0.88,0.38c0.18,0.16,0.27,0.35,0.27,0.57v0.01
			c0,0.2-0.07,0.38-0.2,0.53s-0.31,0.27-0.54,0.36c-0.23,0.09-0.49,0.13-0.79,0.13c-0.42,0-0.76-0.08-1.03-0.25
			s-0.44-0.39-0.53-0.66h-1.09c0.04,0.36,0.18,0.68,0.4,0.95s0.53,0.48,0.91,0.63C130.01,200.09,130.44,200.17,130.94,200.17z"/>
		<path class="st4" d="M136.12,195.36c0.22,0,0.41-0.08,0.57-0.24c0.16-0.16,0.23-0.35,0.23-0.56c0-0.22-0.08-0.41-0.23-0.57
			c-0.16-0.16-0.34-0.23-0.57-0.23c-0.22,0-0.4,0.08-0.56,0.23c-0.16,0.16-0.24,0.34-0.24,0.57c0,0.22,0.08,0.4,0.24,0.56
			C135.72,195.28,135.9,195.36,136.12,195.36z M136.12,200.11c0.22,0,0.41-0.08,0.57-0.24c0.16-0.16,0.23-0.35,0.23-0.56
			c0-0.22-0.08-0.41-0.23-0.57c-0.16-0.16-0.34-0.23-0.57-0.23c-0.22,0-0.4,0.08-0.56,0.23c-0.16,0.16-0.24,0.34-0.24,0.57
			c0,0.22,0.08,0.4,0.24,0.56C135.72,200.03,135.9,200.11,136.12,200.11z"/>
	</g>
	<g>
		<defs>
			<rect id="SVGID_00000158710311314455548130000003628563131306805177_" x="143.22" y="184.32" width="100.64" height="22.02"/>
		</defs>
		<clipPath id="SVGID_00000106114697206189642950000003446385889903377032_">
			<use xlink:href="#SVGID_00000158710311314455548130000003628563131306805177_"  style="overflow:visible;"/>
		</clipPath>
		<path style="clip-path:url(#SVGID_00000106114697206189642950000003446385889903377032_);fill:#FFFFFF;" d="M143.74,203.72v-16.77
			c0-0.28,0.05-0.55,0.16-0.8c0.11-0.26,0.26-0.48,0.45-0.68c0.2-0.2,0.42-0.35,0.68-0.45c0.26-0.11,0.52-0.16,0.8-0.16h95.4
			c0.28,0,0.55,0.05,0.8,0.16c0.26,0.11,0.48,0.26,0.68,0.45s0.35,0.42,0.45,0.68c0.11,0.26,0.16,0.52,0.16,0.8v16.77
			c0,0.28-0.05,0.55-0.16,0.8c-0.11,0.26-0.26,0.48-0.45,0.68c-0.2,0.2-0.42,0.35-0.68,0.45c-0.26,0.11-0.52,0.16-0.8,0.16h-95.4
			c-0.28,0-0.55-0.05-0.8-0.16c-0.26-0.11-0.48-0.26-0.68-0.45c-0.2-0.2-0.35-0.42-0.45-0.68
			C143.79,204.26,143.74,204,143.74,203.72z"/>
		
			<path style="clip-path:url(#SVGID_00000106114697206189642950000003446385889903377032_);fill:none;stroke:#767676;stroke-width:1.0484;" d="
			M143.74,203.72v-16.77c0-0.28,0.05-0.55,0.16-0.8c0.11-0.26,0.26-0.48,0.45-0.68c0.2-0.2,0.42-0.35,0.68-0.45
			c0.26-0.11,0.52-0.16,0.8-0.16h95.4c0.28,0,0.55,0.05,0.8,0.16c0.26,0.11,0.48,0.26,0.68,0.45s0.35,0.42,0.45,0.68
			c0.11,0.26,0.16,0.52,0.16,0.8v16.77c0,0.28-0.05,0.55-0.16,0.8c-0.11,0.26-0.26,0.48-0.45,0.68c-0.2,0.2-0.42,0.35-0.68,0.45
			c-0.26,0.11-0.52,0.16-0.8,0.16h-95.4c-0.28,0-0.55-0.05-0.8-0.16c-0.26-0.11-0.48-0.26-0.68-0.45c-0.2-0.2-0.35-0.42-0.45-0.68
			C143.79,204.26,143.74,204,143.74,203.72z"/>
	</g>
	<g>
		<defs>
			<rect id="SVGID_00000061449915588780784720000003142955710029334717_" x="147.41" y="187.47" width="76.53" height="15.73"/>
		</defs>
		<clipPath id="SVGID_00000084488306038868088410000003777157630351198634_">
			<use xlink:href="#SVGID_00000061449915588780784720000003142955710029334717_"  style="overflow:visible;"/>
		</clipPath>
		<path style="clip-path:url(#SVGID_00000084488306038868088410000003777157630351198634_);" d="M151.31,200.26
			c0.6,0,1.13-0.13,1.6-0.39s0.83-0.62,1.09-1.07s0.4-0.98,0.4-1.58v-0.01c0-0.57-0.12-1.08-0.37-1.53
			c-0.25-0.44-0.58-0.79-1.01-1.05c-0.43-0.26-0.92-0.38-1.48-0.38c-0.27,0-0.52,0.04-0.76,0.11s-0.46,0.18-0.65,0.31
			c-0.19,0.14-0.35,0.3-0.49,0.5h-0.1l0.3-3h4.06v-0.99h-4.93l-0.47,5.09h0.96c0.06-0.11,0.12-0.2,0.19-0.29s0.14-0.17,0.22-0.24
			c0.19-0.18,0.41-0.32,0.66-0.41s0.52-0.14,0.81-0.14c0.38,0,0.72,0.09,1.02,0.26s0.53,0.41,0.7,0.72
			c0.17,0.31,0.25,0.65,0.25,1.05v0.01c0,0.4-0.08,0.75-0.25,1.06s-0.4,0.55-0.7,0.72c-0.3,0.17-0.65,0.26-1.04,0.26
			c-0.34,0-0.65-0.07-0.93-0.2c-0.28-0.14-0.5-0.32-0.67-0.55c-0.17-0.23-0.27-0.49-0.31-0.77l-0.01-0.05h-1.06l0.01,0.07
			c0.05,0.47,0.2,0.89,0.46,1.27c0.26,0.37,0.61,0.67,1.04,0.89S150.76,200.26,151.31,200.26z"/>
	</g>
	<g>
		<g>
			<g>
				<defs>
					<path id="SVGID_00000088820712183962491260000010997795179612688784_" d="M242.81,216.82H87.65v14.68h155.16V216.82z"/>
				</defs>
				<clipPath id="SVGID_00000093869121709736895980000002976408820901954949_">
					<use xlink:href="#SVGID_00000088820712183962491260000010997795179612688784_"  style="overflow:visible;"/>
				</clipPath>
				
					<rect x="85.56" y="214.73" style="clip-path:url(#SVGID_00000093869121709736895980000002976408820901954949_);" width="159.35" height="18.87"/>
			</g>
		</g>
	</g>
	<g>
		<g>
			<rect x="86.98" y="216.15" class="st1" width="156.5" height="16.02"/>
			<path class="st21" d="M243.11,216.53v15.27H87.35v-15.27H243.11 M243.86,215.78H86.6v16.77h157.25V215.78L243.86,215.78z"/>
		</g>
		<g>
			
				<linearGradient id="SVGID_00000112592828011689838970000017506256929636225181_" gradientUnits="userSpaceOnUse" x1="-530.6811" y1="768.6253" x2="-381.3963" y2="768.6253" gradientTransform="matrix(1.0484 0 0 -1.0484 643.3227 1029.9568)">
				<stop  offset="0" style="stop-color:#000004"/>
				<stop  offset="0.25" style="stop-color:#50127C"/>
				<stop  offset="0.5" style="stop-color:#B63779"/>
				<stop  offset="0.75" style="stop-color:#FB8761"/>
				<stop  offset="1" style="stop-color:#FCFDBF"/>
			</linearGradient>
			
				<rect x="86.98" y="216.15" style="fill:url(#SVGID_00000112592828011689838970000017506256929636225181_);" width="156.5" height="16.02"/>
			<path class="st21" d="M243.11,216.53v15.27H87.35v-15.27H243.11 M243.86,215.78H86.6v16.77h157.25V215.78L243.86,215.78z"/>
		</g>
	</g>
	<g>
		<defs>
			<rect id="SVGID_00000083784158833677828940000015210545198699738268_" x="86.6" y="267.15" width="157.25" height="15.73"/>
		</defs>
		<clipPath id="SVGID_00000178903975080184525590000010432461427520021642_">
			<use xlink:href="#SVGID_00000083784158833677828940000015210545198699738268_"  style="overflow:visible;"/>
		</clipPath>
		<path style="clip-path:url(#SVGID_00000178903975080184525590000010432461427520021642_);fill:#222222;" d="M217.68,279.84
			c0.53,0,0.99-0.09,1.36-0.26s0.68-0.42,0.91-0.73s0.39-0.66,0.48-1.06l0.01-0.07l-1.06,0.01l-0.01,0.04
			c-0.12,0.37-0.33,0.65-0.61,0.84s-0.65,0.29-1.09,0.29c-0.39,0-0.74-0.1-1.03-0.31c-0.29-0.2-0.52-0.49-0.68-0.87
			c-0.16-0.37-0.24-0.82-0.24-1.32v-0.01c0-0.5,0.08-0.93,0.24-1.3c0.16-0.37,0.38-0.65,0.67-0.85c0.29-0.2,0.63-0.3,1.03-0.3
			c0.48,0,0.86,0.11,1.15,0.34c0.29,0.23,0.48,0.51,0.56,0.84l0.01,0.02h1.06l-0.01-0.04c-0.07-0.39-0.21-0.75-0.45-1.07
			c-0.23-0.32-0.54-0.57-0.93-0.76c-0.39-0.19-0.85-0.28-1.39-0.28c-0.62,0-1.15,0.14-1.61,0.42c-0.45,0.28-0.81,0.67-1.05,1.18
			s-0.37,1.11-0.37,1.79v0.01c0,0.7,0.12,1.31,0.37,1.82c0.25,0.52,0.6,0.92,1.06,1.2C216.53,279.7,217.07,279.84,217.68,279.84z"/>
		<path style="clip-path:url(#SVGID_00000178903975080184525590000010432461427520021642_);fill:#222222;" d="M224.74,278.9
			c-0.42,0-0.77-0.1-1.06-0.29c-0.29-0.2-0.51-0.48-0.67-0.85s-0.23-0.81-0.23-1.33v-0.01c0-0.52,0.08-0.97,0.23-1.34
			s0.38-0.65,0.67-0.84c0.29-0.19,0.64-0.29,1.06-0.29c0.42,0,0.77,0.1,1.06,0.29s0.51,0.48,0.67,0.84
			c0.15,0.37,0.23,0.81,0.23,1.34v0.01c0,0.52-0.08,0.96-0.23,1.33c-0.15,0.37-0.38,0.65-0.67,0.85S225.15,278.9,224.74,278.9z
			 M224.74,279.84c0.63,0,1.17-0.14,1.63-0.41c0.45-0.28,0.81-0.67,1.05-1.18c0.25-0.51,0.37-1.12,0.37-1.82v-0.01
			c0-0.71-0.12-1.32-0.37-1.83c-0.25-0.51-0.6-0.91-1.05-1.18c-0.45-0.27-1-0.41-1.63-0.41c-0.63,0-1.17,0.14-1.62,0.41
			c-0.46,0.27-0.81,0.67-1.06,1.18c-0.25,0.51-0.37,1.12-0.37,1.83v0.01c0,0.7,0.12,1.31,0.37,1.82c0.25,0.51,0.6,0.91,1.06,1.18
			S224.11,279.84,224.74,279.84z"/>
		
			<rect x="229.51" y="270.47" style="clip-path:url(#SVGID_00000178903975080184525590000010432461427520021642_);fill:#222222;" width="1.07" height="9.25"/>
		<path style="clip-path:url(#SVGID_00000178903975080184525590000010432461427520021642_);fill:#222222;" d="M235.35,278.9
			c-0.42,0-0.77-0.1-1.06-0.29c-0.29-0.2-0.51-0.48-0.67-0.85s-0.23-0.81-0.23-1.33v-0.01c0-0.52,0.08-0.97,0.23-1.34
			s0.38-0.65,0.67-0.84c0.29-0.19,0.64-0.29,1.06-0.29c0.42,0,0.77,0.1,1.06,0.29s0.51,0.48,0.67,0.84
			c0.15,0.37,0.23,0.81,0.23,1.34v0.01c0,0.52-0.08,0.96-0.23,1.33c-0.15,0.37-0.38,0.65-0.67,0.85S235.77,278.9,235.35,278.9z
			 M235.35,279.84c0.63,0,1.17-0.14,1.63-0.41c0.45-0.28,0.81-0.67,1.05-1.18c0.25-0.51,0.37-1.12,0.37-1.82v-0.01
			c0-0.71-0.12-1.32-0.37-1.83c-0.25-0.51-0.6-0.91-1.05-1.18c-0.45-0.27-1-0.41-1.63-0.41c-0.63,0-1.17,0.14-1.62,0.41
			c-0.46,0.27-0.81,0.67-1.06,1.18c-0.25,0.51-0.37,1.12-0.37,1.83v0.01c0,0.7,0.12,1.31,0.37,1.82c0.25,0.51,0.6,0.91,1.06,1.18
			S234.72,279.84,235.35,279.84z"/>
		<path style="clip-path:url(#SVGID_00000178903975080184525590000010432461427520021642_);fill:#222222;" d="M240.06,279.73h1.07
			v-4.1c0-0.32,0.07-0.61,0.22-0.85c0.15-0.24,0.36-0.43,0.62-0.57c0.26-0.14,0.56-0.2,0.9-0.2c0.12,0,0.23,0.01,0.33,0.02
			c0.1,0.01,0.21,0.03,0.32,0.05v-1.04c-0.05-0.01-0.13-0.02-0.23-0.03c-0.1-0.01-0.2-0.02-0.3-0.02c-0.45,0-0.82,0.1-1.12,0.29
			s-0.52,0.46-0.65,0.81h-0.1v-0.98h-1.07V279.73z"/>
	</g>
	<g>
		<g class="st24">
			<g>
				<defs>
					<rect id="SVGID_00000062911613912320035140000003024262101021069184_" x="199.76" y="23.75" width="32.64" height="23.28"/>
				</defs>
				<clipPath id="SVGID_00000142163700312140175320000007495451870519953582_">
					<use xlink:href="#SVGID_00000062911613912320035140000003024262101021069184_"  style="overflow:visible;"/>
				</clipPath>
				<path style="clip-path:url(#SVGID_00000142163700312140175320000007495451870519953582_);fill:#808080;" d="M200.88,46.99V24.97
					h23.06c0.55,0,1.1,0.05,1.64,0.16c0.54,0.11,1.06,0.27,1.57,0.48c0.51,0.21,0.99,0.47,1.45,0.78c0.46,0.31,0.88,0.65,1.27,1.04
					s0.74,0.81,1.04,1.27c0.31,0.46,0.56,0.94,0.78,1.45c0.21,0.51,0.37,1.03,0.48,1.57c0.11,0.54,0.16,1.09,0.16,1.64v13.63H200.88
					z"/>
				<polygon style="clip-path:url(#SVGID_00000142163700312140175320000007495451870519953582_);fill:#FFFFFF;" points="
					225.1,39.99 224.39,40.7 220.72,37.03 217.05,40.7 216.35,39.99 220.02,36.32 216.35,32.65 217.05,31.95 220.72,35.62 
					224.39,31.95 225.1,32.65 221.43,36.32 				"/>
			</g>
		</g>
	</g>
	<g>
		<g>
			<g>
				<defs>
					<path id="SVGID_00000085218029169341933250000002615211160968091555_" d="M75.07,71.1c-0.58,0-1.07,0.2-1.48,0.61
						c-0.41,0.41-0.61,0.9-0.61,1.48c0,0.58,0.2,1.07,0.61,1.48c0.41,0.41,0.9,0.61,1.48,0.61c0.58,0,1.07-0.2,1.48-0.61
						c0.41-0.41,0.61-0.9,0.61-1.48c0-0.58-0.2-1.07-0.61-1.48C76.15,71.31,75.65,71.1,75.07,71.1z"/>
				</defs>
				<clipPath id="SVGID_00000070834782165563127070000005940015280621584555_">
					<use xlink:href="#SVGID_00000085218029169341933250000002615211160968091555_"  style="overflow:visible;"/>
				</clipPath>
				<path style="clip-path:url(#SVGID_00000070834782165563127070000005940015280621584555_);fill:#FFFFFF;" d="M80.31,73.2
					c0,0.34-0.03,0.69-0.1,1.02c-0.07,0.34-0.17,0.67-0.3,0.98s-0.29,0.62-0.48,0.91s-0.41,0.55-0.65,0.79
					c-0.24,0.24-0.51,0.46-0.79,0.65c-0.29,0.19-0.59,0.35-0.91,0.48s-0.65,0.23-0.98,0.3s-0.68,0.1-1.02,0.1s-0.69-0.03-1.02-0.1
					c-0.34-0.07-0.67-0.17-0.98-0.3c-0.32-0.13-0.62-0.29-0.91-0.48c-0.29-0.19-0.55-0.41-0.79-0.65c-0.24-0.24-0.46-0.51-0.65-0.79
					s-0.35-0.59-0.48-0.91s-0.23-0.65-0.3-0.98c-0.07-0.34-0.1-0.68-0.1-1.02s0.03-0.69,0.1-1.02s0.17-0.67,0.3-0.98
					s0.29-0.62,0.48-0.91c0.19-0.29,0.41-0.55,0.65-0.79c0.24-0.24,0.51-0.46,0.79-0.65s0.59-0.35,0.91-0.48
					c0.32-0.13,0.65-0.23,0.98-0.3c0.34-0.07,0.68-0.1,1.02-0.1s0.69,0.03,1.02,0.1c0.34,0.07,0.67,0.17,0.98,0.3
					s0.62,0.29,0.91,0.48s0.55,0.41,0.79,0.65c0.24,0.24,0.46,0.51,0.65,0.79c0.19,0.29,0.35,0.59,0.48,0.91s0.23,0.65,0.3,0.98
					C80.28,72.51,80.31,72.85,80.31,73.2z"/>
			</g>
		</g>
	</g>
	<g>
		<path class="st28" d="M77.69,73.2c0,0.35-0.07,0.68-0.2,1c-0.13,0.32-0.32,0.6-0.57,0.85c-0.25,0.25-0.53,0.44-0.85,0.57
			c-0.32,0.13-0.66,0.2-1,0.2c-0.35,0-0.68-0.07-1-0.2c-0.32-0.13-0.6-0.32-0.85-0.57c-0.25-0.25-0.44-0.53-0.57-0.85
			c-0.13-0.32-0.2-0.66-0.2-1s0.07-0.68,0.2-1s0.32-0.6,0.57-0.85s0.53-0.44,0.85-0.57c0.32-0.13,0.66-0.2,1-0.2
			c0.35,0,0.68,0.07,1,0.2c0.32,0.13,0.6,0.32,0.85,0.57s0.44,0.53,0.57,0.85S77.69,72.85,77.69,73.2z"/>
		<path class="st29" d="M77.69,73.2c0,0.35-0.07,0.68-0.2,1c-0.13,0.32-0.32,0.6-0.57,0.85c-0.25,0.25-0.53,0.44-0.85,0.57
			c-0.32,0.13-0.66,0.2-1,0.2c-0.35,0-0.68-0.07-1-0.2c-0.32-0.13-0.6-0.32-0.85-0.57c-0.25-0.25-0.44-0.53-0.57-0.85
			c-0.13-0.32-0.2-0.66-0.2-1s0.07-0.68,0.2-1s0.32-0.6,0.57-0.85s0.53-0.44,0.85-0.57c0.32-0.13,0.66-0.2,1-0.2
			c0.35,0,0.68,0.07,1,0.2c0.32,0.13,0.6,0.32,0.85,0.57s0.44,0.53,0.57,0.85S77.69,72.85,77.69,73.2z"/>
	</g>
	<g>
		<g>
			<g>
				<defs>
					<path id="SVGID_00000002358191434709591030000013075918030354138806_" d="M255.39,273.44c-0.58,0-1.07,0.2-1.48,0.61
						c-0.41,0.41-0.61,0.9-0.61,1.48c0,0.58,0.2,1.07,0.61,1.48c0.41,0.41,0.9,0.61,1.48,0.61c0.58,0,1.07-0.2,1.48-0.61
						c0.41-0.41,0.61-0.9,0.61-1.48c0-0.58-0.2-1.07-0.61-1.48C256.46,273.64,255.97,273.44,255.39,273.44z"/>
				</defs>
				<clipPath id="SVGID_00000057131175224788879920000005830744184627166632_">
					<use xlink:href="#SVGID_00000002358191434709591030000013075918030354138806_"  style="overflow:visible;"/>
				</clipPath>
				<path style="clip-path:url(#SVGID_00000057131175224788879920000005830744184627166632_);fill:#FFFFFF;" d="M260.63,275.53
					c0,0.34-0.03,0.69-0.1,1.02c-0.07,0.34-0.17,0.67-0.3,0.98c-0.13,0.32-0.29,0.62-0.48,0.91c-0.19,0.29-0.41,0.55-0.65,0.79
					c-0.24,0.24-0.51,0.46-0.79,0.65c-0.29,0.19-0.59,0.35-0.91,0.48c-0.32,0.13-0.65,0.23-0.98,0.3c-0.34,0.07-0.68,0.1-1.02,0.1
					s-0.69-0.03-1.02-0.1c-0.34-0.07-0.67-0.17-0.98-0.3c-0.32-0.13-0.62-0.29-0.91-0.48c-0.29-0.19-0.55-0.41-0.79-0.65
					s-0.46-0.51-0.65-0.79c-0.19-0.29-0.35-0.59-0.48-0.91c-0.13-0.32-0.23-0.65-0.3-0.98c-0.07-0.34-0.1-0.68-0.1-1.02
					c0-0.34,0.03-0.69,0.1-1.02c0.07-0.34,0.17-0.67,0.3-0.98s0.29-0.62,0.48-0.91c0.19-0.29,0.41-0.55,0.65-0.79
					c0.24-0.24,0.51-0.46,0.79-0.65c0.29-0.19,0.59-0.35,0.91-0.48c0.32-0.13,0.65-0.23,0.98-0.3c0.34-0.07,0.68-0.1,1.02-0.1
					s0.69,0.03,1.02,0.1c0.34,0.07,0.67,0.17,0.98,0.3c0.32,0.13,0.62,0.29,0.91,0.48c0.29,0.19,0.55,0.41,0.79,0.65
					c0.24,0.24,0.46,0.51,0.65,0.79c0.19,0.29,0.35,0.59,0.48,0.91s0.23,0.65,0.3,0.98C260.6,274.85,260.63,275.19,260.63,275.53z"
					/>
			</g>
		</g>
	</g>
	<g>
		<path class="st28" d="M258.01,275.53c0,0.35-0.07,0.68-0.2,1c-0.13,0.32-0.32,0.6-0.57,0.85s-0.53,0.44-0.85,0.57
			c-0.32,0.13-0.66,0.2-1,0.2s-0.68-0.07-1-0.2c-0.32-0.13-0.6-0.32-0.85-0.57c-0.25-0.25-0.44-0.53-0.57-0.85
			c-0.13-0.32-0.2-0.66-0.2-1c0-0.35,0.07-0.68,0.2-1s0.32-0.6,0.57-0.85c0.25-0.25,0.53-0.44,0.85-0.57c0.32-0.13,0.66-0.2,1-0.2
			s0.68,0.07,1,0.2c0.32,0.13,0.6,0.32,0.85,0.57s0.44,0.53,0.57,0.85S258.01,275.18,258.01,275.53z"/>
		<path class="st29" d="M258.01,275.53c0,0.35-0.07,0.68-0.2,1c-0.13,0.32-0.32,0.6-0.57,0.85s-0.53,0.44-0.85,0.57
			c-0.32,0.13-0.66,0.2-1,0.2s-0.68-0.07-1-0.2c-0.32-0.13-0.6-0.32-0.85-0.57c-0.25-0.25-0.44-0.53-0.57-0.85
			c-0.13-0.32-0.2-0.66-0.2-1c0-0.35,0.07-0.68,0.2-1s0.32-0.6,0.57-0.85c0.25-0.25,0.53-0.44,0.85-0.57c0.32-0.13,0.66-0.2,1-0.2
			s0.68,0.07,1,0.2c0.32,0.13,0.6,0.32,0.85,0.57s0.44,0.53,0.57,0.85S258.01,275.18,258.01,275.53z"/>
		<path class="st31" d="M75.07,46.99V24.97h125.8c0.55,0,1.1,0.05,1.64,0.16c0.54,0.11,1.06,0.27,1.57,0.48
			c0.51,0.21,0.99,0.47,1.45,0.78c0.46,0.31,0.88,0.65,1.27,1.04c0.39,0.39,0.74,0.81,1.04,1.27c0.31,0.46,0.56,0.94,0.78,1.45
			s0.37,1.03,0.48,1.57c0.11,0.54,0.16,1.09,0.16,1.64v13.63H75.07z"/>
		<path class="st1" d="M93.34,40.93c0.71,0,1.35-0.13,1.9-0.39c0.55-0.26,1-0.63,1.34-1.1c0.34-0.47,0.54-1.01,0.61-1.63l0-0.07
			h-1.81l-0.01,0.05c-0.06,0.32-0.19,0.59-0.37,0.83s-0.42,0.42-0.7,0.55c-0.28,0.13-0.6,0.19-0.96,0.19
			c-0.47,0-0.87-0.12-1.21-0.37s-0.6-0.61-0.78-1.07c-0.18-0.46-0.27-1.01-0.27-1.64v-0.01c0-0.63,0.09-1.18,0.27-1.64
			c0.18-0.46,0.44-0.81,0.78-1.06s0.74-0.37,1.2-0.37c0.35,0,0.67,0.07,0.96,0.21s0.52,0.34,0.71,0.59
			c0.19,0.25,0.31,0.54,0.37,0.88l0.01,0.04h1.8v-0.08c-0.06-0.62-0.26-1.18-0.6-1.66c-0.35-0.48-0.8-0.86-1.35-1.14
			c-0.56-0.28-1.19-0.41-1.89-0.41c-0.86,0-1.6,0.19-2.22,0.56s-1.1,0.91-1.43,1.61c-0.34,0.7-0.5,1.52-0.5,2.48v0.01
			c0,0.96,0.17,1.78,0.5,2.48c0.34,0.7,0.81,1.23,1.44,1.61C91.75,40.74,92.49,40.93,93.34,40.93z"/>
		<path class="st1" d="M101.73,39.44c-0.32,0-0.59-0.08-0.81-0.25c-0.22-0.17-0.39-0.41-0.51-0.72s-0.18-0.7-0.18-1.14v-0.01
			c0-0.44,0.06-0.82,0.18-1.13c0.12-0.31,0.29-0.56,0.51-0.72c0.22-0.17,0.49-0.25,0.81-0.25c0.32,0,0.59,0.08,0.81,0.25
			c0.22,0.17,0.39,0.41,0.51,0.72c0.12,0.31,0.18,0.69,0.18,1.13v0.01c0,0.44-0.06,0.82-0.18,1.14s-0.29,0.56-0.51,0.72
			C102.32,39.35,102.05,39.44,101.73,39.44z M101.73,40.84c0.7,0,1.29-0.14,1.79-0.42s0.88-0.69,1.15-1.21
			c0.27-0.53,0.4-1.16,0.4-1.89v-0.01c0-0.73-0.13-1.36-0.4-1.88c-0.27-0.53-0.65-0.93-1.15-1.21s-1.09-0.42-1.78-0.42
			c-0.69,0-1.28,0.14-1.78,0.43s-0.88,0.69-1.15,1.21s-0.41,1.15-0.41,1.88v0.01c0,0.73,0.13,1.36,0.4,1.89
			c0.27,0.53,0.65,0.93,1.15,1.21S101.03,40.84,101.73,40.84z"/>
		<rect x="106.58" y="31.35" class="st1" width="1.79" height="9.35"/>
		<path class="st1" d="M113.23,39.44c-0.32,0-0.59-0.08-0.81-0.25c-0.22-0.17-0.39-0.41-0.51-0.72s-0.18-0.7-0.18-1.14v-0.01
			c0-0.44,0.06-0.82,0.18-1.13c0.12-0.31,0.29-0.56,0.51-0.72c0.22-0.17,0.49-0.25,0.81-0.25c0.32,0,0.59,0.08,0.81,0.25
			c0.22,0.17,0.39,0.41,0.51,0.72c0.12,0.31,0.18,0.69,0.18,1.13v0.01c0,0.44-0.06,0.82-0.18,1.14s-0.29,0.56-0.51,0.72
			C113.82,39.35,113.55,39.44,113.23,39.44z M113.23,40.84c0.7,0,1.29-0.14,1.79-0.42s0.88-0.69,1.15-1.21
			c0.27-0.53,0.4-1.16,0.4-1.89v-0.01c0-0.73-0.13-1.36-0.4-1.88c-0.27-0.53-0.65-0.93-1.15-1.21s-1.09-0.42-1.78-0.42
			c-0.69,0-1.28,0.14-1.78,0.43s-0.88,0.69-1.15,1.21s-0.41,1.15-0.41,1.88v0.01c0,0.73,0.13,1.36,0.4,1.89
			c0.27,0.53,0.65,0.93,1.15,1.21S112.54,40.84,113.23,40.84z"/>
		<path class="st1" d="M118.03,40.7h1.79v-3.78c0-0.32,0.07-0.59,0.2-0.82c0.14-0.23,0.33-0.41,0.58-0.53
			c0.25-0.12,0.54-0.19,0.88-0.19c0.14,0,0.28,0.01,0.42,0.03c0.14,0.02,0.27,0.04,0.41,0.08v-1.56c-0.09-0.03-0.19-0.05-0.31-0.06
			s-0.24-0.02-0.36-0.02c-0.44,0-0.8,0.1-1.1,0.3c-0.29,0.2-0.5,0.49-0.61,0.86h-0.11v-1.05h-1.79V40.7z"/>
		<polygon class="st1" points="126.92,40.7 128.57,40.7 128.57,34.67 129.49,34.67 127.72,32.08 130.97,40.7 132.13,40.7 
			135.38,32.08 133.61,34.67 134.52,34.67 134.52,40.7 136.17,40.7 136.17,31.84 134.05,31.84 131.6,38.33 131.5,38.33 
			129.04,31.84 126.92,31.84 		"/>
		<path class="st1" d="M139.99,40.81c0.29,0,0.57-0.04,0.82-0.12c0.25-0.08,0.47-0.2,0.66-0.35c0.19-0.15,0.34-0.33,0.46-0.54h0.11
			v0.89h1.77v-4.62c0-0.48-0.11-0.89-0.33-1.23c-0.22-0.34-0.54-0.6-0.95-0.78c-0.42-0.18-0.93-0.27-1.53-0.27
			c-0.57,0-1.06,0.08-1.49,0.25c-0.43,0.16-0.77,0.39-1.02,0.69s-0.4,0.64-0.45,1.04l-0.01,0.06h1.66l0.01-0.02
			c0.07-0.2,0.21-0.36,0.41-0.47c0.2-0.11,0.47-0.16,0.79-0.16c0.37,0,0.65,0.08,0.84,0.24c0.19,0.16,0.29,0.39,0.29,0.68v2.16
			c0,0.24-0.06,0.45-0.19,0.64s-0.3,0.34-0.52,0.45c-0.22,0.11-0.47,0.17-0.74,0.17c-0.31,0-0.57-0.07-0.76-0.22
			c-0.2-0.15-0.3-0.35-0.3-0.61v-0.01c0-0.25,0.09-0.44,0.28-0.59c0.19-0.14,0.48-0.22,0.86-0.25l2.25-0.14v-1.09l-2.52,0.15
			c-0.56,0.03-1.04,0.13-1.43,0.3c-0.39,0.17-0.69,0.39-0.89,0.68c-0.2,0.29-0.3,0.64-0.3,1.04v0.01c0,0.41,0.09,0.77,0.28,1.07
			c0.19,0.31,0.45,0.54,0.78,0.71C139.18,40.72,139.56,40.81,139.99,40.81z"/>
		<path class="st1" d="M148.89,39.32c-0.31,0-0.59-0.08-0.82-0.24c-0.23-0.16-0.41-0.39-0.54-0.69c-0.13-0.3-0.19-0.66-0.19-1.07
			v-0.01c0-0.42,0.06-0.77,0.19-1.07c0.12-0.3,0.3-0.53,0.53-0.68s0.5-0.24,0.82-0.24c0.32,0,0.59,0.08,0.82,0.24
			c0.23,0.16,0.4,0.39,0.53,0.69c0.12,0.3,0.19,0.65,0.19,1.07v0.01c0,0.41-0.06,0.77-0.19,1.07c-0.12,0.3-0.3,0.53-0.53,0.69
			C149.48,39.24,149.2,39.32,148.89,39.32z M145.57,42.94h1.79v-3.32h0.11c0.11,0.25,0.27,0.46,0.47,0.63s0.43,0.31,0.69,0.41
			c0.26,0.1,0.55,0.14,0.86,0.14c0.57,0,1.06-0.14,1.47-0.42c0.41-0.28,0.72-0.68,0.94-1.2c0.22-0.52,0.33-1.14,0.33-1.87v-0.01
			c0-0.72-0.11-1.34-0.33-1.86c-0.22-0.52-0.54-0.92-0.95-1.2c-0.41-0.28-0.9-0.42-1.46-0.42c-0.32,0-0.61,0.05-0.87,0.14
			c-0.26,0.09-0.49,0.22-0.69,0.39s-0.35,0.38-0.47,0.62h-0.11v-1.05h-1.79V42.94z"/>
		<path class="st1" d="M157.03,39.32c-0.31,0-0.59-0.08-0.82-0.24c-0.23-0.16-0.41-0.39-0.54-0.69c-0.13-0.3-0.19-0.66-0.19-1.07
			v-0.01c0-0.42,0.06-0.77,0.19-1.07c0.12-0.3,0.3-0.53,0.53-0.68s0.5-0.24,0.82-0.24c0.32,0,0.59,0.08,0.82,0.24
			c0.23,0.16,0.4,0.39,0.53,0.69c0.12,0.3,0.19,0.65,0.19,1.07v0.01c0,0.41-0.06,0.77-0.19,1.07c-0.12,0.3-0.3,0.53-0.53,0.69
			C157.62,39.24,157.34,39.32,157.03,39.32z M153.71,42.94h1.79v-3.32h0.11c0.11,0.25,0.27,0.46,0.47,0.63s0.43,0.31,0.69,0.41
			c0.26,0.1,0.55,0.14,0.86,0.14c0.57,0,1.06-0.14,1.47-0.42c0.41-0.28,0.72-0.68,0.94-1.2c0.22-0.52,0.33-1.14,0.33-1.87v-0.01
			c0-0.72-0.11-1.34-0.33-1.86c-0.22-0.52-0.54-0.92-0.95-1.2c-0.41-0.28-0.9-0.42-1.46-0.42c-0.32,0-0.61,0.05-0.87,0.14
			c-0.26,0.09-0.49,0.22-0.69,0.39s-0.35,0.38-0.47,0.62h-0.11v-1.05h-1.79V42.94z"/>
		<path class="st1" d="M162.76,32.9c0.28,0,0.52-0.1,0.71-0.29s0.3-0.43,0.3-0.7c0-0.28-0.1-0.51-0.3-0.71s-0.44-0.29-0.71-0.29
			c-0.27,0-0.51,0.1-0.71,0.29s-0.3,0.43-0.3,0.71c0,0.27,0.1,0.51,0.3,0.7S162.49,32.9,162.76,32.9z M161.86,40.7h1.79v-6.76h-1.79
			V40.7z"/>
		<path class="st1" d="M165.46,40.7h1.79v-3.91c0-0.31,0.05-0.57,0.16-0.8c0.11-0.23,0.26-0.4,0.46-0.53
			c0.2-0.12,0.44-0.19,0.71-0.19c0.42,0,0.74,0.12,0.94,0.37c0.2,0.25,0.3,0.61,0.3,1.09v3.97h1.79v-4.37c0-0.81-0.2-1.43-0.59-1.87
			c-0.39-0.44-0.97-0.66-1.72-0.66c-0.48,0-0.89,0.11-1.22,0.32c-0.33,0.21-0.57,0.5-0.72,0.87h-0.11v-1.04h-1.79V40.7z"/>
		<path class="st1" d="M176.36,39.03c-0.32,0-0.6-0.08-0.82-0.23c-0.23-0.16-0.4-0.38-0.52-0.66s-0.18-0.61-0.18-0.98v-0.01
			c0-0.37,0.06-0.7,0.18-0.98s0.29-0.5,0.52-0.66s0.5-0.23,0.82-0.23c0.32,0,0.6,0.08,0.83,0.23s0.41,0.38,0.53,0.66
			c0.12,0.28,0.19,0.61,0.19,0.98v0.01c0,0.37-0.06,0.7-0.19,0.98c-0.12,0.28-0.3,0.5-0.53,0.65
			C176.96,38.95,176.68,39.03,176.36,39.03z M176.34,43.08c0.68,0,1.28-0.11,1.78-0.32c0.5-0.21,0.89-0.51,1.16-0.9
			c0.27-0.39,0.41-0.84,0.41-1.37v-6.55h-1.79v1.11h-0.08c-0.12-0.25-0.28-0.47-0.48-0.65c-0.2-0.18-0.42-0.32-0.68-0.42
			c-0.26-0.1-0.55-0.15-0.86-0.15c-0.58,0-1.07,0.14-1.49,0.42c-0.41,0.28-0.73,0.67-0.96,1.17c-0.22,0.5-0.33,1.08-0.33,1.74v0.01
			c0,0.64,0.11,1.2,0.33,1.69c0.22,0.49,0.54,0.87,0.95,1.14c0.41,0.27,0.9,0.41,1.47,0.41c0.31,0,0.6-0.04,0.86-0.12
			c0.26-0.08,0.49-0.21,0.69-0.37c0.2-0.16,0.36-0.37,0.48-0.6h0.11v1.26c0,0.39-0.13,0.7-0.4,0.91c-0.27,0.22-0.64,0.32-1.12,0.32
			c-0.4,0-0.71-0.06-0.94-0.18s-0.37-0.28-0.42-0.48L175,41.11h-1.77l0,0.03c0.05,0.38,0.2,0.72,0.46,1.01
			c0.25,0.29,0.6,0.52,1.05,0.68C175.18,43,175.71,43.08,176.34,43.08z"/>
		<path class="st1" d="M193.62,40.85c0.32,0,0.58-0.1,0.78-0.31c0.2-0.2,0.3-0.46,0.3-0.76c0-0.31-0.1-0.56-0.3-0.76
			c-0.2-0.2-0.46-0.3-0.78-0.3c-0.31,0-0.57,0.1-0.78,0.3s-0.31,0.46-0.31,0.76c0,0.3,0.1,0.55,0.31,0.76S193.31,40.85,193.62,40.85
			z M189.81,40.85c0.32,0,0.58-0.1,0.78-0.31s0.3-0.46,0.3-0.76c0-0.31-0.1-0.56-0.3-0.76s-0.46-0.3-0.78-0.3
			c-0.31,0-0.57,0.1-0.78,0.3c-0.2,0.2-0.31,0.46-0.31,0.76c0,0.3,0.1,0.55,0.31,0.76C189.24,40.75,189.49,40.85,189.81,40.85z
			 M185.99,40.85c0.32,0,0.58-0.1,0.78-0.31c0.2-0.2,0.3-0.46,0.3-0.76c0-0.31-0.1-0.56-0.3-0.76c-0.2-0.2-0.46-0.3-0.78-0.3
			c-0.31,0-0.57,0.1-0.78,0.3s-0.31,0.46-0.31,0.76c0,0.3,0.1,0.55,0.31,0.76S185.68,40.85,185.99,40.85z"/>
	</g>
</g>
</svg>
